<?xml version="1.0" encoding="utf-8"?>
<!-- Generator: Adobe Illustrator 27.5.0, SVG Export Plug-In . SVG Version: 6.00 Build 0)  -->
<svg version="1.1" xmlns="http://www.w3.org/2000/svg" xmlns:xlink="http://www.w3.org/1999/xlink" x="0px" y="0px"
	 viewBox="0 0 500 500" style="enable-background:new 0 0 500 500;" xml:space="preserve">
<g id="BACKGROUND">
	<rect style="fill:#F6F7F0;" width="500" height="500"/>
</g>
<g id="OBJECTS">
	<polygon style="fill:#060606;" points="346.021,283.439 346.02,283.439 346.018,283.44 	"/>
	<path style="fill:#060606;" d="M345.905,283.474c0.1-0.03,0.105-0.031,0.109-0.033c0.001,0,0.003-0.001,0.004-0.001c0,0,0,0,0,0
		C345.98,283.451,345.942,283.463,345.905,283.474z"/>
	<path style="fill:#060606;" d="M165.687,162.39c-0.033-0.004-0.066-0.008-0.099-0.012c-0.005-0.001-0.01-0.001-0.015-0.001
		C165.611,162.381,165.649,162.385,165.687,162.39z"/>
	<path style="fill:#060606;" d="M156.156,149.253c0.022,0.027,0.045,0.053,0.067,0.08c-0.002-0.01-0.005-0.022-0.007-0.032
		c-0.117-0.133-0.227-0.278-0.32-0.43c0.008,0.014,0.016,0.029,0.025,0.044C155.995,149.031,156.073,149.144,156.156,149.253z"/>
	<path style="fill:#060606;" d="M107.059,182.93c5.239,1.345,10.465-1.412,15.459-2.715c1.4-0.432,3.23-0.934,4.776-1.317
		c1.357-0.267,3.391-0.841,3.008-2.628c-0.509-2.507-10.724-3.483-13.022-3.212c-4.092,0.356-9.847,1.401-12.248,5.059
		C103.885,179.959,105.026,182.38,107.059,182.93z"/>
	<path style="fill:#060606;" d="M110.456,161.642c-5.282-0.833-8.013,6.154-2.733,8.33c1.932,0.764,4.323,0.585,5.896-0.857
		c0.901-0.92,2.007-2.87,0.613-3.816C115.319,163.135,112.208,161.754,110.456,161.642z"/>
	<path style="fill:#060606;" d="M202.061,159.178c3.597,1.1,5.413-3.137,8.257-4.401c1.238-0.681,2.713-1.164,3.514-2.407
		c1.613-2.787-1.539-5.602-4.226-5.803c-3.371-0.562-7.16,1.03-8.744,4.135c-0.272,0.555-0.459,1.141-0.721,1.7
		C199.21,154.688,199.348,158.238,202.061,159.178z"/>
	<path style="fill:#060606;" d="M195.153,139.891c-1.475,0.499-2.548,1.977-2.601,3.527c-0.257,1.1,0.01,2.302,0.892,3.052
		c1.566,1.523,4.059,0.974,5.513-0.422C201.781,143.019,199.085,138.826,195.153,139.891z"/>
	<path style="fill:#060606;" d="M236.712,146.402c-1.128,1.179-2.518,2.714-4.293,2.576c-1.836-0.128-2.133,2.671-0.278,2.909
		c1.023,0.118,2.034-0.082,2.955-0.504c1.267,5.66,6.789,10.073,12.572,10.307c4.146,0.186,8.288-1.081,11.946-2.994
		c0.524,0.773,1.229,1.425,2.112,1.869c1.69,0.906,3.105-1.555,1.454-2.539c-1.001-0.486-1.69-1.49-1.707-2.611
		c-0.021-0.612,0.025-1.229,0.154-1.828c0.539-1.075-0.537-2.368-1.698-2.032c-1.038,0.272-1.21,1.412-1.309,2.315
		c-0.118,0.686-0.128,1.383-0.038,2.063c-2.794,1.541-5.922,2.545-9.101,2.838c-2.834,0.19-5.785-0.604-7.969-2.46
		c-1.945-1.747-3.608-4.104-3.745-6.78c0.869-0.74,1.646-1.628,1.407-2.472C238.913,145.986,237.472,145.606,236.712,146.402z
		 M237.487,150.75c0.125-0.158,0.217-0.34,0.27-0.534C237.706,150.407,237.619,150.605,237.487,150.75z"/>
	<path style="fill:#060606;" d="M226.822,147.796c0.489,0.238,1.02,0.339,1.555,0.339c0.306,0,0.612-0.033,0.914-0.093
		c1.284-0.254,2.445-1.062,3.392-1.932c0.985-0.904,1.831-1.954,2.568-3.066c0.635-0.956,1.203-1.965,1.695-3.01l-0.023-0.009
		l-0.03-0.012l-0.03-0.012l-0.031-0.012l-0.032-0.012l-0.032-0.013l-0.032-0.013l-0.034-0.013l-0.035-0.014l-0.036-0.014
		l-0.038-0.015l-0.039-0.015l-0.04-0.016l-0.042-0.017l-0.043-0.017l-0.046-0.018l-0.048-0.02l-0.049-0.02l-0.049-0.021
		l-0.049-0.021l-0.051-0.022l-0.051-0.023l-0.052-0.024l-0.051-0.023l-0.05-0.025l-0.051-0.024l-0.05-0.025l-0.051-0.026
		l-0.052-0.027l-0.052-0.027l-0.053-0.027l-0.052-0.028l-0.054-0.028l-0.056-0.03l-0.057-0.03l-0.058-0.031l-0.059-0.031
		l-0.06-0.031l-0.06-0.032l-0.064-0.033l-0.065-0.035l-0.067-0.035l-0.067-0.036l-0.067-0.036l-0.068-0.037l-0.071-0.039
		l-0.071-0.039l-0.071-0.041l-0.072-0.041l-0.069-0.04l-0.071-0.041l-0.073-0.042l-0.073-0.043l-0.073-0.043l-0.072-0.043
		l-0.072-0.043l-0.074-0.043l-0.076-0.045l-0.077-0.045l-0.079-0.045l-0.08-0.045l-0.08-0.044l-0.083-0.045l-0.085-0.045
		l-0.086-0.045l-0.086-0.045l-0.086-0.044l-0.085-0.043l-0.086-0.042l-0.088-0.044l-0.089-0.043l-0.089-0.043l-0.088-0.043
		l-0.086-0.041l-0.086-0.042l-0.086-0.043l-0.083-0.041l-0.079-0.04l-0.076-0.039l-0.072-0.038l-0.069-0.036l-0.07-0.037
		l-0.068-0.036l-0.065-0.034l-0.063-0.033l-0.057-0.031l-0.054-0.029l-0.052-0.028l-0.049-0.027l-0.045-0.024l-0.04-0.022
		l-0.035-0.021l-0.032-0.019l-0.029-0.018l-0.025-0.018l-0.022-0.016l-0.018-0.016l-0.014-0.014l-0.011-0.013l-0.009-0.012
		l-0.006-0.012l-0.004-0.009l-0.002-0.01v-0.009l0.001-0.009l0.003-0.008l0.004-0.008l0.005-0.007l0.007-0.007l0.008-0.007
		l0.008-0.007l0.01-0.006l0.011-0.006l0.012-0.007l0.013-0.006l0.014-0.006l0.016-0.007l0.017-0.006l0.019-0.008l0.02-0.007
		l0.022-0.008l0.023-0.009l0.026-0.008l0.028-0.01l0.03-0.01l0.033-0.01l0.035-0.011l0.039-0.012l0.042-0.012l0.046-0.014
		l0.048-0.014l0.051-0.015l0.055-0.016l0.057-0.016l0.059-0.017l0.064-0.019l0.066-0.019l0.069-0.019l0.069-0.021l0.07-0.02
		l0.072-0.021l0.076-0.023l0.078-0.023l0.08-0.024l0.083-0.025l0.082-0.024l0.084-0.025l0.088-0.024l0.089-0.025l0.09-0.023
		l0.09-0.023l0.09-0.023l0.091-0.022l0.095-0.022l0.096-0.023l0.099-0.022l0.099-0.021l0.099-0.02l0.103-0.021l0.107-0.02
		l0.109-0.02l0.112-0.021l0.115-0.019l0.112-0.018l0.113-0.019l0.117-0.019l0.117-0.019l0.117-0.019l0.113-0.02l0.111-0.019
		l0.109-0.021l0.114-0.022l0.114-0.023l0.114-0.024l0.114-0.025l0.111-0.025l0.111-0.026l0.114-0.026l0.113-0.027l0.112-0.027
		l0.11-0.027l0.105-0.025l0.106-0.026l0.111-0.027l0.109-0.026l0.109-0.027l0.109-0.026l0.106-0.026l0.107-0.026l0.111-0.025
		l0.109-0.026l0.108-0.024l0.105-0.024l0.099-0.022l0.098-0.021l0.102-0.022l0.1-0.022l0.099-0.021l0.097-0.02l0.094-0.02
		l0.094-0.019l0.1-0.02l0.015-0.003c0.136-0.595,0.246-1.196,0.319-1.801c0.152-1.273,0.19-2.573-0.061-3.835
		c-0.191-0.945-0.558-1.953-1.237-2.668c-0.011-0.013-0.024-0.028-0.037-0.041c-0.322-0.343-0.724-0.643-1.154-0.833
		c-0.003-0.001-0.005-0.002-0.007-0.003c-0.101-0.048-0.206-0.09-0.312-0.13c-0.023-0.009-0.045-0.017-0.068-0.025
		c-0.019-0.006-0.036-0.011-0.055-0.017c-0.07-0.021-0.139-0.036-0.209-0.047c-2.314-0.563-4.589,1.202-6.078,2.836
		c-1.674,1.838-2.932,4.056-3.87,6.349c-0.497,1.215-0.88,2.464-1.176,3.743c-0.265,1.146-0.435,2.348-0.423,3.526
		c0.016,1.422,0.209,2.892,0.99,4.114C225.625,146.977,226.163,147.477,226.822,147.796z"/>
	<path style="fill:#060606;" d="M268.668,162.677c0.455,0.18,0.912,0.26,1.365,0.26c1.926,0,3.763-1.455,5.007-2.819
		c1.357-1.488,2.47-3.196,3.349-5.008l-0.015-0.006l-0.029-0.011l-0.029-0.011l-0.029-0.011l-0.028-0.011l-0.027-0.012l-0.029-0.011
		l-0.028-0.012l-0.028-0.011l-0.028-0.012l-0.027-0.011l-0.028-0.012l-0.028-0.012l-0.028-0.012l-0.029-0.013l-0.029-0.012
		l-0.029-0.013l-0.029-0.013l-0.031-0.013l-0.03-0.014l-0.03-0.014l-0.032-0.014l-0.03-0.015l-0.031-0.014l-0.032-0.015
		l-0.032-0.016l-0.031-0.015l-0.032-0.015l-0.03-0.015l-0.031-0.014l-0.032-0.016l-0.031-0.015l-0.031-0.015l-0.031-0.016
		l-0.031-0.015l-0.031-0.015l-0.032-0.016l-0.032-0.017l-0.032-0.016l-0.033-0.017l-0.033-0.017l-0.034-0.017l-0.035-0.017
		l-0.036-0.018l-0.036-0.018l-0.037-0.019l-0.037-0.018l-0.037-0.019l-0.039-0.019l-0.039-0.019l-0.04-0.019l-0.04-0.019
		l-0.039-0.019l-0.039-0.019l-0.041-0.02l-0.041-0.019l-0.041-0.02l-0.04-0.021l-0.041-0.02l-0.04-0.02l-0.042-0.022l-0.041-0.021
		l-0.042-0.022l-0.041-0.022l-0.04-0.021l-0.041-0.022l-0.042-0.022l-0.042-0.022l-0.042-0.023l-0.042-0.022l-0.042-0.023
		l-0.043-0.022l-0.044-0.024l-0.045-0.023l-0.046-0.024l-0.047-0.025l-0.046-0.024l-0.047-0.024l-0.048-0.025l-0.049-0.026
		l-0.049-0.025l-0.049-0.025l-0.046-0.025l-0.046-0.024l-0.048-0.025l-0.047-0.025l-0.047-0.025l-0.046-0.025l-0.046-0.025
		l-0.046-0.025l-0.047-0.026l-0.047-0.027l-0.047-0.026l-0.047-0.027l-0.046-0.025l-0.045-0.026l-0.047-0.026l-0.046-0.027
		l-0.047-0.026l-0.046-0.026l-0.045-0.025l-0.046-0.026l-0.047-0.025l-0.047-0.026l-0.048-0.026l-0.048-0.025l-0.047-0.024
		l-0.047-0.024l-0.049-0.025l-0.049-0.025l-0.049-0.024l-0.051-0.025l-0.049-0.023l-0.049-0.024l-0.05-0.024l-0.05-0.024
		l-0.049-0.025l-0.048-0.024l-0.045-0.022l-0.044-0.022l-0.044-0.023l-0.042-0.021l-0.04-0.021l-0.037-0.019l-0.034-0.018
		l-0.033-0.017l-0.032-0.017l-0.031-0.017l-0.03-0.016l-0.029-0.015l-0.026-0.015l-0.025-0.013l-0.024-0.014l-0.022-0.014
		l-0.021-0.013l-0.018-0.012l-0.016-0.011l-0.014-0.011l-0.013-0.01l-0.011-0.01l-0.01-0.009l-0.008-0.008l-0.007-0.008
		l-0.005-0.007l-0.004-0.006l-0.003-0.006l-0.001-0.005v-0.005l0.001-0.004l0.002-0.003l0.003-0.004l0.003-0.003l0.005-0.004
		l0.005-0.002l0.007-0.003l0.007-0.003l0.008-0.003l0.008-0.002l0.009-0.003l0.01-0.002l0.01-0.003l0.011-0.002l0.012-0.003
		l0.013-0.003l0.013-0.003l0.015-0.004l0.016-0.003l0.017-0.004l0.019-0.004l0.02-0.004l0.021-0.005l0.023-0.004l0.025-0.005
		l0.026-0.006l0.027-0.005l0.029-0.006l0.029-0.006l0.03-0.006l0.032-0.007l0.031-0.007l0.033-0.007l0.034-0.008l0.034-0.008
		l0.036-0.008l0.038-0.009l0.039-0.009l0.04-0.01l0.041-0.01l0.042-0.009l0.042-0.01l0.045-0.011l0.044-0.009l0.044-0.01
		l0.044-0.009l0.043-0.01l0.044-0.008l0.045-0.01l0.045-0.009l0.047-0.01l0.047-0.009l0.049-0.011l0.048-0.01l0.052-0.01
		l0.052-0.011l0.054-0.012l0.055-0.012l0.054-0.012l0.056-0.013l0.058-0.014l0.058-0.014l0.06-0.014l0.059-0.015l0.058-0.014
		l0.059-0.014l0.059-0.015l0.059-0.013l0.057-0.014l0.058-0.013l0.055-0.013l0.054-0.012l0.056-0.012l0.056-0.012l0.056-0.012
		l0.055-0.012l0.055-0.011l0.054-0.012l0.058-0.012l0.06-0.013l0.061-0.013l0.062-0.013l0.061-0.013l0.063-0.014l0.066-0.013
		l0.067-0.013l0.067-0.013l0.066-0.013l0.066-0.013l0.066-0.012l0.068-0.013l0.068-0.012l0.068-0.013l0.067-0.012l0.065-0.011
		l0.066-0.012l0.067-0.011l0.067-0.01l0.066-0.01l0.067-0.01l0.065-0.009l0.066-0.008l0.067-0.007l0.068-0.008l0.069-0.006
		l0.069-0.007l0.069-0.007l0.07-0.007l0.072-0.007l0.073-0.008l0.073-0.009l0.072-0.008l0.072-0.009l0.071-0.01l0.074-0.009
		l0.074-0.011l0.073-0.01l0.074-0.01l0.073-0.011l0.073-0.01l0.076-0.011l0.075-0.01l0.074-0.011l0.072-0.011l0.072-0.009l0.07-0.01
		l0.071-0.01l0.07-0.008l0.069-0.009l0.066-0.008l0.064-0.008l0.063-0.008l0.063-0.008l0.062-0.009l0.061-0.008l0.06-0.008
		l0.057-0.008l0.057-0.007l0.004-0.001c0.264-0.933,0.461-1.883,0.566-2.842c0.198-1.808,0.173-3.868-0.914-5.418
		c-0.565-0.805-1.473-1.408-2.468-1.491c-0.001,0-0.002,0-0.003,0c-0.002-0.001-0.004-0.001-0.007-0.001c-0.001,0-0.003,0-0.005,0
		c-0.064-0.006-0.123-0.01-0.191-0.013c-0.007-0.001-0.012-0.001-0.019-0.001c-0.602-0.041-1.221,0.094-1.781,0.307
		c-0.947,0.359-1.771,0.951-2.528,1.612c-0.873,0.764-1.641,1.673-2.309,2.62c-0.789,1.116-1.485,2.293-2.067,3.532
		c-0.971,2.064-1.728,4.289-1.983,6.565c-0.137,1.23-0.171,2.523,0.153,3.729C266.7,160.973,267.421,162.184,268.668,162.677z"/>
	<path style="fill:#060606;" d="M187.753,128.947c1.295,1.417,3.442-0.503,2.195-1.936c-2.509-2.687-5.035-5.36-7.559-8.032
		c-1.623-1.718-3.223-3.462-4.92-5.108c-0.207-0.231-0.486-0.397-0.808-0.449c-1.044-0.231-2.057,0.906-1.65,1.912
		C179.092,119.971,183.573,124.362,187.753,128.947z"/>
	<path style="fill:#060606;" d="M202.705,119.196c-2.869-4.778-5.846-9.489-8.709-14.268c-0.267-0.373-0.402-1.061-1.043-1.338
		c-1.095-0.577-2.482,0.635-2.012,1.796c2.926,5.244,6.273,10.263,9.331,15.437C201.346,122.408,203.738,120.793,202.705,119.196z"
		/>
	<path style="fill:#060606;" d="M218.92,112.209c-1.118-3.458-2.231-6.919-3.382-10.366c-0.609-1.821-1.254-3.631-1.874-5.448
		c-0.388-0.797-0.326-1.846-1.11-2.397c-1.208-0.803-2.693,0.544-2.156,1.843c1.958,5.758,3.91,11.518,5.754,17.316
		C216.791,114.966,219.512,114.013,218.92,112.209z M213.207,95.354c0.008-0.094,0.007-0.188-0.003-0.281
		C213.217,95.164,213.222,95.261,213.207,95.354z"/>
	<path style="fill:#060606;" d="M233.412,92.835c-0.224-1.9-3.092-1.581-2.909,0.313c0.083,1.772,0.077,3.548,0.134,5.321
		c0.115,3.478,0.194,6.956,0.297,10.433c-0.019,0.787,0.623,1.495,1.42,1.504c2.063-0.056,1.397-2.421,1.442-3.794
		C233.654,102.02,233.559,97.426,233.412,92.835z"/>
	<path style="fill:#060606;" d="M249.919,106.11c0.49-3.578,0.98-7.156,1.302-10.753c-0.025-1.24,0.605-2.762-0.224-3.826
		c-0.823-0.931-2.546-0.285-2.518,0.971c-0.281,5.525-1.15,10.956-1.933,16.539c-0.116,0.788,0.412,1.551,1.208,1.679
		C250.071,110.934,249.489,107.609,249.919,106.11z"/>
	<path style="fill:#060606;" d="M265.645,104.598c-0.9,2.089-1.831,4.165-2.81,6.219c-0.344,0.72,0.072,1.618,0.78,1.916
		c1.481,0.613,2.096-1.081,2.562-2.146c0.985-2.128,1.915-4.278,2.838-6.433c0.915-2.121,1.883-4.217,2.888-6.296
		c0.74-0.884,0.301-2.303-0.885-2.483c-1.531-0.192-1.884,1.671-2.46,2.71C267.534,100.234,266.569,102.406,265.645,104.598z
		 M269.569,97.577c-0.011-0.015-0.023-0.031-0.034-0.046c-0.027-0.057-0.053-0.114-0.08-0.171c-0.019-0.069-0.051-0.138-0.061-0.207
		C269.431,97.305,269.491,97.448,269.569,97.577z"/>
	<path style="fill:#060606;" d="M275.866,119c1.008,0.777,2.036,0.012,2.561-0.925c2.921-3.919,5.708-7.972,8.52-11.948
		c0.594-1.311-1.109-2.58-2.225-1.714c-1.982,2.242-3.48,4.91-5.285,7.305c-1.253,1.756-2.531,3.494-3.814,5.228
		C275.149,117.587,275.225,118.495,275.866,119z"/>
	<path style="fill:#060606;" d="M290.21,127.12c3.455-2.868,6.64-6.04,9.97-9.041c-0.144,0.09-0.191,0.13-0.335,0.178
		c2.284-1.119,0.052-4.668-2.537-1.545c-2.544,2.377-5.047,4.798-7.693,7.062c-1.005,0.979-3.36,2.147-1.993,3.757
		C288.433,128.383,289.539,127.851,290.21,127.12z"/>
	<path style="fill:#060606;" d="M297.632,137.402c0.461,0.848,1.597,0.973,2.314,0.381c1.906-1.14,3.776-2.337,5.659-3.513
		c1.489-0.928,2.987-1.843,4.491-2.746c0.654-0.492,1.636-0.663,1.872-1.559c0.383-1.337-1.221-2.352-2.32-1.574
		c-1.948,1.111-3.838,2.328-5.75,3.5c-1.891,1.186-3.774,2.383-5.691,3.524C297.522,135.821,297.239,136.686,297.632,137.402z"/>
	<path style="fill:#060606;" d="M318.829,146.127c-3.668,1.318-7.38,2.508-11.111,3.634c-1.209,0.373-1.27,2.216-0.12,2.701
		c0.362,0.169,0.743,0.166,1.118,0.05c2.011-0.62,4.028-1.226,6.026-1.888c1.637-0.541,3.265-1.1,4.89-1.678
		c0.997-0.315,2.313-0.678,2.041-2.068C321.288,145.443,319.912,145.606,318.829,146.127z"/>
	<path style="fill:#060606;" d="M323.916,160.613c-2.812,0.811-5.655,1.541-8.518,2.173c-0.778,0.171-1.292,0.956-1.123,1.738
		c0.165,0.78,0.974,1.296,1.738,1.122c3.243-0.714,6.451-1.572,9.64-2.497c0.974-0.261,2.221-0.413,2.158-1.808
		C327.478,159.224,325.256,160.227,323.916,160.613z"/>
	<path style="fill:#060606;" d="M319.844,180.916c-0.041,0.795,0.591,1.496,1.387,1.537c3.205,0.2,6.425,0.143,9.63,0.302
		c1.801,0.531,2.659-2.214,0.857-2.799c-3.407-0.428-6.903-0.144-10.337-0.427C320.585,179.489,319.886,180.119,319.844,180.916z"/>
	<path style="fill:#060606;" d="M168.292,129.35c1.875,1.334,3.688,2.763,5.411,4.288c0.908,0.869,2.546,0.039,2.418-1.198
		c-0.166-1.277-2.084-2.217-2.978-3.082c-1.379-1.14-2.849-2.157-4.3-3.2c-1.016-0.736-2.523,0.285-2.24,1.501
		C166.819,128.551,167.532,128.778,168.292,129.35z"/>
	<path style="fill:#060606;" d="M303.16,172.308c0.323,1.214,2.144,1.361,2.685,0.244c0.809-2.301-4.062-10.362-5.774-12.194
		c0.031,0.043,0.063,0.086,0.095,0.129c0.006,0.012,0.011,0.023,0.017,0.035c-1.18-1.851-3.792,0.274-2.257,1.827
		C300.27,165.251,302.103,168.729,303.16,172.308z"/>
	<path style="fill:#060606;" d="M304.454,176.872c0.032,0.821,0.723,1.405,1.519,1.405c0.798,0,1.435-0.747,1.405-1.519
		c-0.032-0.821-0.723-1.405-1.519-1.405C305.061,175.353,304.424,176.1,304.454,176.872z"/>
	<path style="fill:#060606;" d="M208.997,132.384c1.897-0.801,3.823-1.531,5.729-2.309c1.728-0.804,0.49-3.453-1.244-2.649
		c-2.056,0.845-4.147,1.612-6.18,2.511c-1.299,0.41-2.6,1.602-1.388,2.893C206.889,133.748,208.018,132.75,208.997,132.384z"/>
	<path style="fill:#060606;" d="M220.577,127.368c0.798,0,1.435-0.747,1.405-1.519c-0.032-0.821-0.723-1.405-1.519-1.405
		c-0.798,0-1.435,0.747-1.405,1.519C219.09,126.784,219.781,127.368,220.577,127.368z"/>
	<path style="fill:#060606;" d="M196.238,299.178c1.35,1.918,3.11,3.707,5.285,4.669c0.658,0.29,1.345,0.541,2.056,0.669
		c0.566,0.099,1.129,0.154,1.698,0.154c0.158,0,0.317-0.004,0.476-0.013c1.391-0.076,2.756-0.535,3.96-1.223
		c2.336-1.333,4.091-3.457,5.433-5.755c1.179-2.019,2.031-4.221,2.655-6.469c0.613-2.248,1.023-4.555,1.228-6.88l-0.029-0.004
		l-0.072-0.011l-0.072-0.011l-0.072-0.013l-0.073-0.011l-0.075-0.013l-0.075-0.013l-0.076-0.013l-0.075-0.015l-0.075-0.013
		l-0.077-0.013l-0.078-0.015l-0.079-0.015l-0.08-0.015l-0.08-0.015l-0.08-0.015l-0.08-0.017l-0.025-0.005l-0.058-0.011l-0.083-0.017
		l-0.083-0.017l-0.084-0.015l-0.084-0.017l-0.085-0.017l-0.088-0.019l-0.089-0.017l-0.09-0.019l-0.09-0.017l-0.089-0.019
		l-0.09-0.019l-0.093-0.021l-0.092-0.019l-0.094-0.021l-0.095-0.023l-0.092-0.021l-0.092-0.021l-0.046-0.011l-0.049-0.012
		l-0.094-0.021l-0.094-0.023l-0.093-0.023l-0.092-0.023l-0.091-0.021l-0.094-0.023l-0.097-0.025l-0.097-0.023l-0.097-0.025
		l-0.095-0.023l-0.096-0.025l-0.1-0.025l-0.099-0.025l-0.098-0.027l-0.097-0.025l-0.094-0.025l-0.094-0.025l-0.096-0.025
		l-0.096-0.025l-0.098-0.027l-0.098-0.025l-0.096-0.025l-0.098-0.025l-0.101-0.025l-0.103-0.027l-0.104-0.027l-0.104-0.027
		l-0.102-0.027l-0.102-0.025l-0.106-0.027l-0.106-0.027l-0.107-0.027l-0.108-0.025l-0.106-0.027l-0.107-0.025l-0.111-0.025
		l-0.111-0.027l-0.112-0.027l-0.112-0.025l-0.109-0.025l-0.107-0.025l-0.111-0.025l-0.111-0.025l-0.109-0.025l-0.108-0.023
		l-0.105-0.023l-0.104-0.023l-0.107-0.021l-0.108-0.023l-0.108-0.021l-0.108-0.023l-0.104-0.021l-0.104-0.021l-0.108-0.021
		l-0.108-0.021l-0.108-0.021l-0.107-0.021l-0.103-0.021l-0.103-0.019l-0.108-0.021l-0.108-0.021l-0.108-0.023l-0.108-0.021
		l-0.105-0.019l-0.104-0.021l-0.108-0.021l-0.109-0.021l-0.108-0.023l-0.107-0.021l-0.103-0.021l-0.103-0.021l-0.105-0.021
		l-0.103-0.021l-0.104-0.021l-0.103-0.023l-0.1-0.021l-0.1-0.021l-0.103-0.023l-0.104-0.025l-0.104-0.023l-0.103-0.025l-0.099-0.025
		l-0.098-0.025l-0.101-0.025l-0.1-0.025l-0.099-0.027l-0.097-0.025l-0.092-0.025l-0.092-0.023l-0.093-0.027l-0.09-0.025
		l-0.091-0.025l-0.09-0.025l-0.088-0.027l-0.087-0.025l-0.088-0.025l-0.086-0.025l-0.083-0.025l-0.081-0.023l-0.079-0.021
		l-0.077-0.021l-0.077-0.021l-0.075-0.021l-0.072-0.019l-0.071-0.017l-0.067-0.017l-0.066-0.017l-0.064-0.017l-0.062-0.015
		l-0.058-0.017l-0.055-0.015l-0.051-0.015l-0.047-0.013l-0.046-0.015l-0.041-0.013l-0.039-0.011l-0.034-0.013l-0.029-0.01
		l-0.027-0.011l-0.024-0.009l-0.021-0.008l-0.018-0.008l-0.015-0.008l-0.013-0.006l-0.012-0.006l-0.009-0.006l-0.008-0.006
		l-0.006-0.006l-0.005-0.006l-0.004-0.004l-0.002-0.006l-0.001-0.004l-0.001-0.006l0.001-0.004l0.001-0.006l0.002-0.004l0.002-0.006
		l0.003-0.004l0.004-0.006l0.004-0.006l0.004-0.004l0.005-0.006l0.005-0.006l0.005-0.006l0.006-0.006l0.006-0.008l0.006-0.006
		l0.007-0.006l0.007-0.008l0.007-0.006l0.008-0.008l0.008-0.008l0.008-0.008l0.01-0.008l0.009-0.01l0.01-0.01l0.01-0.01l0.011-0.009
		l0.012-0.009l0.012-0.012l0.013-0.011l0.013-0.011l0.015-0.013l0.015-0.013l0.016-0.015l0.018-0.015l0.018-0.017l0.02-0.017
		l0.022-0.017l0.022-0.021l0.024-0.019l0.026-0.023l0.026-0.021l0.027-0.023l0.029-0.023l0.028-0.023l0.03-0.025l0.03-0.025
		l0.03-0.023l0.031-0.025l0.031-0.023l0.03-0.025l0.031-0.025l0.032-0.025l0.032-0.025l0.032-0.025l0.034-0.025l0.034-0.025
		l0.036-0.027l0.036-0.027l0.037-0.029l0.037-0.027l0.037-0.027l0.038-0.027l0.039-0.027l0.04-0.029l0.039-0.027l0.039-0.029
		l0.04-0.027l0.041-0.029l0.041-0.029l0.042-0.029l0.042-0.029l0.042-0.03l0.044-0.029l0.045-0.032l0.045-0.03l0.047-0.031
		l0.047-0.032l0.047-0.031l0.048-0.032l0.049-0.032l0.049-0.032l0.049-0.032l0.051-0.032l0.05-0.032l0.052-0.032l0.053-0.034
		l0.054-0.036l0.055-0.034l0.055-0.036l0.056-0.034l0.056-0.036l0.058-0.036l0.058-0.038l0.059-0.038l0.059-0.036l0.059-0.038
		l0.059-0.038l0.061-0.038l0.061-0.038l0.06-0.038l0.06-0.036l0.059-0.038l0.059-0.034l0.06-0.038l0.061-0.036l0.061-0.036
		l0.061-0.036l0.059-0.034l0.061-0.036l0.064-0.038l0.066-0.038l0.067-0.04l0.069-0.04l0.068-0.042l0.07-0.042l0.073-0.044
		l0.074-0.046l0.076-0.044l0.075-0.046l0.075-0.046l0.075-0.044l0.076-0.046l0.075-0.044l0.074-0.044l0.071-0.04l0.07-0.04
		l0.07-0.04l0.069-0.038l0.068-0.036l0.067-0.036l0.065-0.036l0.066-0.038l0.068-0.036l0.067-0.038l0.067-0.038l0.067-0.04
		l0.068-0.04l0.07-0.042l0.071-0.044l0.072-0.044l0.073-0.048l0.076-0.046l0.076-0.048l0.078-0.048l0.08-0.05l0.081-0.049
		l0.082-0.049l0.081-0.049l0.081-0.046l0.083-0.049l0.085-0.048l0.085-0.048l0.085-0.048l0.082-0.046l0.079-0.044l0.079-0.042
		l0.08-0.044l0.076-0.042l0.076-0.04l0.073-0.04l0.072-0.038l0.071-0.04l0.071-0.04l0.072-0.04l0.071-0.04l0.07-0.04l0.07-0.04
		l0.071-0.04l0.072-0.044l0.071-0.042l0.072-0.044l0.071-0.042l0.071-0.044l0.07-0.042l0.073-0.044l0.072-0.044l0.071-0.042
		l0.07-0.04l0.068-0.038l0.067-0.04l0.068-0.038l0.066-0.036l0.064-0.036l0.061-0.036l0.059-0.032l0.057-0.032l0.057-0.032
		l0.056-0.03l0.054-0.032l0.052-0.03l0.051-0.029l0.05-0.029l0.05-0.031l0.049-0.029l0.049-0.029l0.048-0.029l0.045-0.027
		l0.045-0.027l0.045-0.027l0.043-0.027l0.043-0.025l0.042-0.025l0.04-0.023l0.04-0.023l0.04-0.023l0.038-0.023l0.038-0.021
		l0.035-0.019l0.034-0.019l0.033-0.019l0.033-0.019l0.03-0.015l0.03-0.017l0.029-0.015l0.026-0.015l0.026-0.013l0.025-0.015
		l0.025-0.013l0.024-0.015l0.024-0.013l0.023-0.013l0.022-0.015l0.024-0.015l0.023-0.015l0.024-0.015l0.025-0.017l0.026-0.017
		l0.026-0.017l0.027-0.019l0.027-0.017l0.028-0.019l0.029-0.019l0.028-0.019l0.029-0.019l0.028-0.019l0.028-0.017l0.02-0.013
		l0.007-0.004l0.027-0.017l0.025-0.015l0.024-0.013l0.025-0.015l0.023-0.013l0.023-0.013l0.023-0.013l0.022-0.013l0.022-0.013
		l0.023-0.013l0.023-0.013l0.023-0.015l0.023-0.013l0.024-0.015l0.024-0.015l0.026-0.015l0.026-0.015l0.026-0.017l0.027-0.017
		l0.028-0.017l0.028-0.017l0.028-0.017l0.028-0.017l0.028-0.017l0.027-0.015l0.027-0.017l0.027-0.015l0.028-0.015l0.027-0.015
		l0.027-0.015l0.027-0.015l0.027-0.015l0.027-0.015l0.028-0.013l0.028-0.017l0.029-0.015l0.028-0.015l0.03-0.017l0.029-0.017
		l0.031-0.019l0.032-0.019l0.033-0.019l0.035-0.021l0.035-0.023l0.037-0.023l0.038-0.023l0.038-0.023l0.039-0.025l0.039-0.025
		l0.039-0.023l0.039-0.023l0.038-0.023l0.038-0.025l0.037-0.021l0.036-0.021l0.035-0.023l0.034-0.021l0.035-0.021l0.034-0.021
		l0.035-0.021l0.035-0.021l0.034-0.023l0.036-0.023l0.036-0.023l0.038-0.025l0.029-0.018l0.009-0.007l0.04-0.025l0.04-0.027
		l0.042-0.027l0.044-0.029l0.045-0.029l0.046-0.031l0.046-0.03l0.048-0.03l0.048-0.03l0.049-0.03l0.05-0.032l0.051-0.032l0.05-0.032
		l0.049-0.03l0.031-0.019c-0.583-2.805-1.497-5.542-2.85-8.063c-0.015-0.036-0.033-0.071-0.052-0.105
		c-0.09-0.164-0.182-0.326-0.275-0.488c-0.02-0.034-0.039-0.069-0.059-0.103l-0.025-0.042c-0.01-0.017-0.02-0.034-0.03-0.051
		c-0.015-0.025-0.056-0.095-0.097-0.164c-0.224-0.373-0.457-0.741-0.706-1.099c-0.05-0.074-0.102-0.147-0.154-0.219
		c-0.007-0.011-0.014-0.021-0.022-0.03c-0.063-0.088-0.127-0.173-0.191-0.259c-1.454-1.922-3.293-3.659-5.59-4.505
		c-0.565-0.208-1.153-0.383-1.751-0.465c-0.701-0.095-1.42-0.156-2.127-0.07c-0.703,0.086-1.377,0.225-2.05,0.448
		c-0.546,0.181-1.071,0.43-1.573,0.707c-2.207,1.221-3.939,3.204-5.238,5.336c-1.274,2.091-2.225,4.387-2.879,6.745
		c-0.674,2.427-1.112,4.905-1.307,7.416c-0.189,2.429-0.175,4.89,0.08,7.313c0.277,2.634,0.77,5.261,1.612,7.778
		C193.835,294.955,194.842,297.191,196.238,299.178z"/>
	<path style="fill:#060606;" d="M257.634,282.977c0.768,2.297,1.775,4.534,3.172,6.52c1.35,1.918,3.11,3.707,5.285,4.669
		c0.658,0.29,1.345,0.541,2.056,0.669c0.566,0.099,1.129,0.154,1.698,0.154c0.158,0,0.317-0.004,0.476-0.013
		c1.391-0.076,2.756-0.535,3.96-1.223c2.336-1.333,4.091-3.457,5.433-5.755c1.179-2.019,2.031-4.221,2.655-6.469
		c0.613-2.248,1.023-4.555,1.228-6.88l-0.03-0.004l-0.072-0.011l-0.072-0.011l-0.072-0.013l-0.073-0.011l-0.075-0.013l-0.075-0.013
		l-0.076-0.013l-0.075-0.015l-0.075-0.013l-0.077-0.013l-0.078-0.015l-0.079-0.015l-0.08-0.015l-0.08-0.015l-0.08-0.015l-0.08-0.017
		l-0.025-0.005l-0.058-0.01l-0.083-0.017l-0.083-0.017l-0.084-0.015l-0.084-0.017l-0.085-0.017l-0.088-0.019l-0.089-0.017
		l-0.09-0.019l-0.09-0.017l-0.09-0.019l-0.09-0.019l-0.093-0.021l-0.092-0.019l-0.094-0.021l-0.095-0.023l-0.092-0.021l-0.092-0.021
		l-0.046-0.011l-0.049-0.012l-0.094-0.021l-0.094-0.023l-0.093-0.023l-0.092-0.023l-0.091-0.021l-0.094-0.023l-0.097-0.025
		l-0.097-0.023l-0.097-0.025l-0.095-0.023l-0.096-0.025l-0.1-0.025l-0.099-0.025l-0.098-0.027l-0.097-0.025l-0.094-0.025
		l-0.094-0.025l-0.096-0.025l-0.096-0.025l-0.098-0.027l-0.098-0.025l-0.096-0.025l-0.098-0.025l-0.101-0.025l-0.103-0.027
		l-0.104-0.027l-0.104-0.027l-0.102-0.027l-0.102-0.025l-0.106-0.027l-0.106-0.027l-0.107-0.027l-0.108-0.025l-0.106-0.027
		l-0.107-0.025l-0.11-0.025l-0.112-0.027l-0.112-0.027l-0.112-0.025l-0.109-0.025l-0.107-0.025l-0.111-0.025l-0.111-0.025
		l-0.11-0.025l-0.108-0.023l-0.105-0.023l-0.104-0.023l-0.107-0.021l-0.108-0.023l-0.108-0.021l-0.108-0.023l-0.104-0.021
		l-0.104-0.021l-0.108-0.021l-0.108-0.021l-0.108-0.021l-0.107-0.021l-0.103-0.021l-0.103-0.019l-0.108-0.021l-0.108-0.021
		l-0.108-0.023l-0.108-0.021l-0.105-0.019l-0.104-0.021l-0.108-0.021l-0.11-0.021l-0.108-0.023l-0.107-0.021l-0.103-0.021
		l-0.103-0.021l-0.105-0.021l-0.103-0.021l-0.104-0.021l-0.103-0.023l-0.1-0.021l-0.1-0.021l-0.103-0.023l-0.104-0.025l-0.104-0.023
		l-0.103-0.025l-0.099-0.025l-0.098-0.025l-0.101-0.025l-0.1-0.025l-0.099-0.027l-0.097-0.025l-0.092-0.025l-0.092-0.023
		l-0.093-0.027l-0.091-0.025l-0.091-0.025l-0.09-0.025l-0.088-0.027l-0.087-0.025l-0.088-0.025l-0.086-0.025l-0.083-0.025
		l-0.081-0.023l-0.079-0.021l-0.077-0.021l-0.077-0.021l-0.075-0.021l-0.072-0.019l-0.07-0.017l-0.067-0.017l-0.066-0.017
		l-0.064-0.017l-0.062-0.015l-0.058-0.017l-0.055-0.015l-0.052-0.015l-0.047-0.013l-0.046-0.015l-0.041-0.013l-0.039-0.011
		l-0.034-0.013l-0.029-0.01l-0.027-0.011l-0.024-0.009l-0.021-0.008l-0.018-0.008l-0.015-0.008l-0.013-0.006l-0.011-0.006
		l-0.009-0.006l-0.008-0.006l-0.006-0.006l-0.005-0.006l-0.004-0.004l-0.002-0.006l-0.001-0.004l-0.001-0.006l0.001-0.004
		l0.001-0.006l0.002-0.004l0.002-0.006l0.003-0.004l0.004-0.006l0.004-0.006l0.004-0.004l0.005-0.006l0.005-0.006l0.005-0.006
		l0.006-0.006l0.006-0.008l0.006-0.006l0.007-0.006l0.007-0.008l0.007-0.006l0.008-0.008l0.009-0.008l0.008-0.008l0.01-0.008
		l0.009-0.009l0.01-0.01l0.01-0.01l0.012-0.009l0.011-0.009l0.012-0.012l0.013-0.011l0.013-0.011l0.015-0.013l0.015-0.013
		l0.016-0.015l0.018-0.015l0.018-0.017l0.02-0.017l0.022-0.017l0.022-0.021l0.024-0.019l0.026-0.023l0.026-0.021l0.027-0.023
		l0.029-0.023l0.029-0.023l0.03-0.025l0.03-0.025l0.03-0.023l0.03-0.025l0.031-0.023l0.031-0.025l0.031-0.025l0.032-0.025
		l0.032-0.025l0.032-0.025l0.034-0.025l0.034-0.025l0.036-0.027l0.036-0.027l0.037-0.029l0.037-0.027l0.037-0.027l0.038-0.027
		l0.039-0.027l0.04-0.029l0.039-0.027l0.039-0.029l0.04-0.027l0.041-0.029l0.041-0.029l0.042-0.029l0.042-0.029l0.042-0.03
		l0.044-0.029l0.045-0.032l0.045-0.03l0.047-0.031l0.047-0.032l0.047-0.031l0.048-0.032l0.049-0.032l0.049-0.032l0.05-0.032
		l0.05-0.032l0.05-0.032l0.052-0.032l0.053-0.034l0.054-0.036l0.055-0.034l0.055-0.036l0.056-0.034l0.056-0.036l0.058-0.036
		l0.058-0.038l0.059-0.038l0.059-0.036l0.059-0.038l0.059-0.038l0.061-0.038l0.061-0.038l0.06-0.038l0.06-0.036l0.059-0.038
		l0.059-0.034l0.06-0.038l0.061-0.036l0.061-0.036l0.061-0.036l0.059-0.034l0.061-0.036l0.064-0.038l0.066-0.038l0.067-0.04
		l0.069-0.04l0.069-0.042l0.069-0.042l0.073-0.044l0.074-0.046l0.076-0.044l0.075-0.046l0.075-0.046l0.075-0.044l0.076-0.046
		l0.075-0.044l0.074-0.044l0.07-0.04l0.07-0.04l0.07-0.04l0.069-0.038l0.069-0.036l0.067-0.036l0.065-0.036l0.066-0.038l0.068-0.036
		l0.067-0.038l0.067-0.038l0.067-0.04l0.068-0.04l0.069-0.042l0.072-0.044l0.072-0.044l0.073-0.048l0.076-0.046l0.076-0.048
		l0.078-0.048l0.08-0.05l0.081-0.049l0.082-0.049l0.081-0.05l0.081-0.046l0.083-0.049l0.085-0.048l0.085-0.048l0.085-0.048
		l0.082-0.046l0.079-0.044l0.079-0.042l0.08-0.044l0.076-0.042l0.076-0.04l0.073-0.04l0.071-0.038l0.071-0.04l0.072-0.04l0.072-0.04
		l0.071-0.04l0.07-0.04l0.07-0.04l0.071-0.04l0.072-0.044l0.071-0.042l0.072-0.044l0.071-0.042l0.072-0.044l0.07-0.042l0.073-0.044
		l0.072-0.044l0.071-0.042l0.069-0.04l0.068-0.038l0.067-0.04l0.068-0.038l0.066-0.036l0.064-0.036l0.061-0.036l0.059-0.032
		l0.057-0.032l0.057-0.032l0.056-0.03l0.054-0.032l0.052-0.03l0.05-0.029l0.051-0.028l0.049-0.031l0.05-0.029l0.048-0.029
		l0.048-0.029l0.045-0.027l0.045-0.027l0.045-0.027l0.043-0.027l0.043-0.025l0.042-0.025l0.04-0.023l0.04-0.023l0.04-0.023
		l0.038-0.023l0.038-0.021l0.035-0.019l0.034-0.019l0.033-0.019l0.033-0.019l0.031-0.015l0.029-0.017l0.029-0.015l0.026-0.015
		l0.026-0.013l0.025-0.015l0.025-0.013l0.024-0.015l0.024-0.013l0.023-0.013l0.022-0.015l0.024-0.015l0.023-0.015l0.024-0.015
		l0.025-0.017l0.026-0.017l0.026-0.017l0.027-0.019l0.027-0.017l0.028-0.019l0.029-0.019l0.028-0.019l0.029-0.019l0.028-0.019
		l0.028-0.017l0.02-0.013l0.007-0.004l0.027-0.017l0.025-0.015l0.024-0.013l0.025-0.015l0.023-0.013l0.023-0.013l0.023-0.013
		l0.022-0.013l0.022-0.013l0.023-0.013l0.023-0.013l0.023-0.015l0.023-0.013l0.024-0.015l0.024-0.015l0.026-0.015l0.026-0.015
		l0.026-0.017l0.027-0.017l0.028-0.017l0.028-0.017l0.028-0.017l0.028-0.017l0.028-0.017l0.027-0.015l0.027-0.017l0.027-0.015
		l0.028-0.015l0.027-0.015l0.027-0.015l0.027-0.015l0.027-0.015l0.027-0.015l0.028-0.013l0.028-0.017l0.029-0.015l0.028-0.015
		l0.03-0.017l0.029-0.017l0.032-0.019l0.032-0.019l0.033-0.019l0.035-0.021l0.035-0.023l0.037-0.023l0.038-0.023l0.038-0.023
		l0.039-0.025l0.039-0.025l0.039-0.023l0.039-0.023l0.038-0.023l0.038-0.025l0.037-0.021l0.036-0.021l0.035-0.023l0.034-0.021
		l0.035-0.021l0.034-0.021l0.035-0.021l0.035-0.021l0.034-0.023l0.036-0.023l0.036-0.023l0.038-0.025l0.029-0.018l0.01-0.007
		l0.04-0.025l0.04-0.027l0.042-0.027l0.044-0.029l0.045-0.029l0.046-0.031l0.046-0.03l0.048-0.03l0.048-0.03l0.049-0.03l0.051-0.032
		l0.05-0.032l0.05-0.032l0.049-0.03l0.03-0.019c-0.583-2.805-1.497-5.542-2.85-8.063c-0.015-0.036-0.033-0.07-0.052-0.105
		c-0.09-0.164-0.182-0.326-0.275-0.488c-0.02-0.034-0.039-0.069-0.059-0.103l-0.025-0.042c-0.01-0.017-0.02-0.034-0.03-0.051
		c-0.015-0.025-0.056-0.095-0.097-0.164c-0.224-0.373-0.457-0.741-0.706-1.099c-0.05-0.074-0.102-0.147-0.154-0.219
		c-0.007-0.011-0.014-0.021-0.022-0.031c-0.063-0.088-0.127-0.173-0.191-0.259c-1.454-1.922-3.293-3.659-5.59-4.505
		c-0.565-0.208-1.154-0.383-1.752-0.465c-0.701-0.095-1.42-0.156-2.127-0.071c-0.703,0.086-1.377,0.225-2.05,0.448
		c-0.546,0.181-1.07,0.43-1.572,0.707c-2.207,1.221-3.939,3.204-5.239,5.336c-1.274,2.092-2.225,4.387-2.879,6.745
		c-0.674,2.427-1.112,4.905-1.307,7.416c-0.189,2.429-0.175,4.89,0.08,7.313C256.299,277.834,256.792,280.461,257.634,282.977z"/>
	<path style="fill:#060606;" d="M281.135,310.297c-1.234-6.148-7.546-10.405-13.698-8.879c-6.476,1.224-10.368,7.122-15.803,10.287
		c-4.567,2.662-10.074,3.119-15.24,2.549c-3.581-0.449-7.111-1.33-10.479-2.627c-3.168-1.304-6.254-3.004-9.702-3.427
		c-3.679-0.523-7.56,0.345-10.594,2.512c-4.115,2.864-6.571,7.849-6.553,12.84c0.039,6.49,4.201,12.254,9.127,16.148
		c5.977,4.81,13.472,7.012,20.886,8.458c3.568,0.749,7.158,1.494,10.801,1.767c8.755,0.68,17.242-2.592,24.563-7.163
		c4.11-2.408,7.966-5.359,10.799-9.231c3.999-5.573,6.581-12.361,6.605-19.264c-0.005-1.086-0.133-2.178-0.329-3.246
		C281.467,310.738,281.328,310.49,281.135,310.297z M230.389,336.401c-0.413,2.059-0.828,4.118-1.195,6.187
		c-0.149,0.841-0.283,1.686-0.433,2.528c-5.556-1.171-11.143-2.72-15.986-5.757c0.231-0.433,0.418-0.937,0.651-1.36
		c1.974-3.546,4.07-7.199,6.016-10.795c2.211-4.154,4.583-8.221,6.857-12.339c2.632,0.921,5.346,1.626,8.101,2.059
		c-0.015,0.086-0.03,0.172-0.042,0.254C232.849,323.548,231.657,329.983,230.389,336.401z M202.137,325.373
		c-0.864-5.427,2.163-11.321,7.29-13.455c4.919-2.177,9.617-0.187,14.136,1.874c-2.786,4.897-5.514,9.846-8.226,14.792
		c-1.118,2.052-2.256,4.093-3.425,6.116c-0.306,0.723-1.138,1.852-1.61,2.929C206.366,334.589,202.959,330.37,202.137,325.373z
		 M242.054,347.073c-3.512-0.015-6.972-0.689-10.407-1.372c0.214-0.841,0.223-1.868,0.419-2.56c0.348-1.973,0.74-3.936,1.133-5.9
		c0.992-4.945,1.893-9.908,2.967-14.836c0.379-1.709,0.778-3.414,1.152-5.124c0.321,0.027,0.643,0.051,0.965,0.07
		c2.464,0.122,4.976,0.009,7.417-0.438c0.181,1.234,0.585,2.583,0.677,3.532c1.546,8.431,3.294,16.823,4.98,25.226
		C248.349,346.584,245.236,347.11,242.054,347.073z M262.1,340.766c-2.53,1.511-5.191,2.872-7.953,3.941
		c-0.344-1.723-0.651-3.454-1.039-5.169c-1.578-7.768-3.182-15.522-4.499-23.338c1.402-0.435,2.763-0.998,4.056-1.717
		c2.011-1.051,3.767-2.504,5.493-3.998c0.008,0.009,0.015,0.019,0.023,0.028c1.481,2.049,3.22,3.896,4.781,5.883
		c3.437,4.598,6.899,9.185,10.189,13.891c0.141,0.192,0.3,0.335,0.468,0.436c-0.216,0.332-0.436,0.66-0.661,0.984
		C270.142,335.578,266.202,338.392,262.1,340.766z M275.188,328.087c-0.468-0.678-0.937-1.357-1.419-2.026
		c-4.052-5.441-7.933-11.011-12.377-16.145c-0.378-0.37-0.651-0.912-0.98-1.371c2.066-1.73,4.226-3.295,6.857-4.087
		c4.763-1.484,9.503,1.178,10.895,5.932c0.266,0.842-0.239,1.63,0.648,2.286C279.288,318.021,277.739,323.37,275.188,328.087z"/>
	<path style="fill:#060606;" d="M201.916,308.118c-0.255-1.687-2.031-1.481-3.121-0.706c-2.62,1.472-4.87,3.678-6.209,6.383
		c-0.534,1.418-2.208,4.254,0.095,4.861c2.652,0.315,0.9-3.769,5.708-7.442c0.732-0.585,1.506-1.119,2.357-1.517
		C201.464,309.544,201.988,308.862,201.916,308.118z"/>
	<path style="fill:#060606;" d="M283.729,299.497c-1.234-1.253-5.011-4.236-5.391-0.85c0.067,1.178,1.381,1.305,2.125,1.924
		c1.618,1.1,2.761,2.761,3.353,4.615c0.672,1.796,3.376,0.81,2.754-0.989C285.957,302.461,285.07,300.784,283.729,299.497z
		 M280.945,297.622c0.017,0.022,0.035,0.043,0.052,0.065c0,0,0,0-0.001-0.001c0.037,0.07,0.093,0.132,0.112,0.208
		C281.064,297.799,281.01,297.708,280.945,297.622z"/>
	<path style="fill:#060606;" d="M314.877,233.306c3.348-1.169,6.619-2.546,9.847-4.012c1.755-0.771,0.616-3.424-1.139-2.695
		c-5.353,2.464-10.884,4.531-16.537,6.193c-0.862,0.266-1.723,0.538-2.593,0.781c-1.258,0.342-3.525,0.454-3.098,2.317
		c0.204,0.754,1.051,1.258,1.799,1.021c1.277-0.337,2.57-0.613,3.823-1.037C309.635,235.089,312.278,234.264,314.877,233.306z"/>
	<path style="fill:#060606;" d="M323.504,233.878c-2.857,1.439-5.842,2.596-8.865,3.631c-2.786,0.947-5.625,1.749-8.502,2.371
		c-0.897,0.049-1.825,0.519-1.819,1.539c0.084,1.688,1.785,1.574,2.995,1.197c2.186-0.51,4.366-1.07,6.505-1.752
		c4.728-1.528,9.372-3.347,13.69-5.823c0.695-0.389,0.921-1.324,0.525-2.001C326.805,231.262,324.897,233.368,323.504,233.878z"/>
	<path style="fill:#060606;" d="M366.424,282.334c1.755-0.756,0.628-3.41-1.139-2.696c-1.719,0.671-3.43,1.368-5.171,1.98
		c-0.859,0.297-2.127,0.713-3.113,1.021c-0.915,0.236-2.083,0.499-2.064,1.683c0.195,2.271,2.645,1.235,4.005,0.768
		C361.481,284.295,363.953,283.312,366.424,282.334z"/>
	<path style="fill:#060606;" d="M366.979,284.228c-1.482,0.478-2.962,0.959-4.44,1.45c-1.428,0.474-2.853,0.975-4.321,1.318
		c-1.31-0.157-2.405,1.253-1.535,2.387c1.329,1.449,4.26-0.29,5.879-0.633c1.73-0.572,3.46-1.141,5.194-1.7
		C369.592,286.507,368.817,283.73,366.979,284.228z"/>
	<path style="fill:#060606;" d="M171.323,361.326c1.84-0.569,1.075-3.296-0.777-2.821c-1.909,0.603-3.809,1.231-5.703,1.879
		c-1.92,0.642-3.796,1.408-5.683,2.14c-0.82,0.119-1.468,0.838-1.35,1.688c0.532,2.3,3.055,0.746,4.436,0.24
		C165.226,363.281,168.276,362.301,171.323,361.326z"/>
	<path style="fill:#060606;" d="M175.636,362.05c-2.394,0.791-4.797,1.553-7.203,2.303c-1.826,0.564-3.64,1.172-5.453,1.777
		c-1.31,0.24-2.656,1.255-1.71,2.646c0.487,0.639,1.322,0.689,1.982,0.338c2.197-0.736,4.4-1.455,6.612-2.143
		c2.189-0.681,4.374-1.378,6.55-2.1C178.26,364.353,177.466,361.541,175.636,362.05z"/>
	<g>
		<path style="fill:#060606;" d="M108.359,103.636c18.182,1.092,36.411,1.469,54.616,1.955c0.408,0.024,0.806-0.135,1.088-0.406
			c1.031,0.668,2.371-0.307,2.54-1.411c-0.003-3.15-2.859-6.044-4.793-8.347c-3.992-3.908-10.176-4.709-15.312-2.825
			c0.71-4.678,1.285-9.735-0.727-14.174c-2.885-7.438-11.681-11.41-19.259-9.272c-8.455,2.478-14.088,12.037-15.048,20.423
			c-4.024-1.897-9.103-2.771-12.8,0.282c-2.77,2.452-5.324,6.486-4.505,10.303c1.019,2.858,4.473,2.585,6.958,2.893
			C103.529,103.277,105.943,103.467,108.359,103.636z M98.142,95.062c1.647-3.497,5.631-5.249,9.273-3.838
			c1.145,0.32,2.284,0.691,3.324,1.277c0.969,0.802,2.597,1.562,3.362,0.095c0.406-3.038,0.556-6.207,1.903-9.075
			c3.127-7.192,9.767-14.003,18.242-11.551c6.026,1.372,10.143,7.289,9.969,13.368c-0.004,2.322-0.233,4.633-0.615,6.922
			c-0.126,0.903-0.434,1.874-0.007,2.741c1.326,2.662,6.447-1.822,11.326-0.116c4.068,0.897,6.712,4.361,8.579,7.852
			c-0.113-0.037-0.233-0.06-0.356-0.067c-16-0.372-34.065-0.919-49.997-1.655c-4.794-0.31-9.596-0.601-14.372-1.133
			C95.618,100.057,97.233,96.677,98.142,95.062z"/>
		<path style="fill:#060606;" d="M122.342,81.706c1.61,1.042,2.37-0.986,3.198-1.991c0.651-0.77,1.381-1.498,2.257-2.009
			l-0.003-0.001c1.429-0.633,0.904-2.863-0.668-2.788c-2.268,0.624-3.848,2.891-5.129,4.748
			C121.562,80.333,121.674,81.229,122.342,81.706z"/>
		<path style="fill:#060606;" d="M120.328,88.219c0.798,0,1.435-0.747,1.405-1.519c-0.032-0.821-0.723-1.405-1.519-1.405
			c-0.798,0-1.435,0.747-1.405,1.519C118.841,87.635,119.531,88.219,120.328,88.219z"/>
	</g>
	<g>
		<path style="fill:#060606;" d="M255.86,79.921c0.325,0.224,0.738,0.321,1.142,0.234c3.305,0.049,6.611,0.135,9.914,0.259
			c12.793,0.502,25.59,0.577,38.391,0.632c10.336,0.202,20.663,0.776,31,0.961c7.338,1.049,6.812-8.371,3.6-12.438
			c-3.925-5.139-9.996-8.854-16.428-9.712c-4.457-0.417-8.708,1.579-12.07,4.374c-0.759-7.364-3.198-15.404-9.799-19.569
			c-6.056-3.911-14.525-2.978-20.074,1.431c-5.712,4.927-7.728,12.539-8.988,19.691c-6.899-3.321-14.172-4.118-19.564,2.358
			C249.695,71.983,251.361,77.949,255.86,79.921z M258.235,67.456c7.364-4.273,13.06,3.078,16.203,0.991
			c1.298-1.406,1.084-3.563,1.616-5.307c0.943-4.286,2.192-8.655,4.938-12.163c4.325-6.2,14.039-7.835,20.044-3.163
			c5.589,4.363,6.891,11.604,7.694,18.262c0.523,3.312,3.058,1.931,4.687,0.29c7.346-6.462,15.915-3.203,22.312,2.823
			c1.657,1.644,3.088,3.644,3.426,6.006c0.205,1.784,0.199,4.38-2.266,3.894c0.048,0,0.095-0.001,0.142-0.001
			c-17.129-0.457-34.246-1.215-51.387-1.085c-9.516-0.135-19.023-0.624-28.54-0.77C252.176,74.622,254.039,69.749,258.235,67.456z"
			/>
		<path style="fill:#060606;" d="M286.16,56.064c1.47-1.758,2.939-3.61,4.946-4.782c0.958-0.75,2.798-0.567,2.893-2.099
			c0.049-1.263-1.28-1.845-2.342-1.366c-2.405,0.806-4.378,2.498-6.038,4.369c-0.833,1.114-2.982,2.6-1.523,4.026
			C284.686,56.721,285.656,56.682,286.16,56.064z"/>
		<path style="fill:#060606;" d="M281.872,61.883c0.386,0,0.747-0.105,1.04-0.365c0.293-0.259,0.474-0.633,0.492-1.025
			c0.037-0.767-0.591-1.533-1.39-1.533c-0.386,0-0.747,0.105-1.04,0.365c-0.293,0.259-0.474,0.633-0.492,1.025
			C280.445,61.117,281.074,61.883,281.872,61.883z"/>
	</g>
	<g>
		<path style="fill:#060606;" d="M344.504,123.901c5.334,0.336,10.842-0.341,16.239-0.215c8.869-0.096,17.903,0.076,26.692-1.11
			c3.736-1.858,1.45-9.805-0.188-12.655c-3.156-5.557-9.02-9.971-15.501-10.459c-7.329-0.281-11.395,7.624-12.696,13.855
			c-5.347-4.976-14.032-4.82-16.194,3.113C342.33,118.869,342.205,122.334,344.504,123.901z M351.545,112.837
			c3.122,0.241,5.197,2.669,7.676,4.199c1.7,0.654,2.547-1.15,2.59-2.571c1.011-5.162,4.063-12.593,10.377-12.051
			c7.907,1.228,15.528,9.148,14.052,17.461c-13.133,1.208-26.345,0.674-39.508,1.214c0,0,0.097-0.001,0.097-0.001
			c-0.339,0.004-0.68,0.01-1.019,0.001C344.387,117.294,347.199,112.282,351.545,112.837z"/>
		<path style="fill:#060606;" d="M369.981,109.424c1.856-2.53,5.624-1.896,7.779-0.1c1.153,1.356,3.262-0.118,2.394-1.667
			c-1.043-1.368-2.804-2.078-4.414-2.537c-2.764-0.821-5.986-0.052-7.827,2.236C366.579,108.76,368.609,110.756,369.981,109.424z"/>
		<path style="fill:#060606;" d="M366.987,113.674c0.797,0,1.463-0.666,1.463-1.463c0-0.797-0.666-1.463-1.463-1.463
			s-1.463,0.666-1.463,1.463C365.524,113.008,366.19,113.674,366.987,113.674z"/>
	</g>
	<path style="fill:#060606;" d="M126.958,263.766c0.185-0.348,0.205-0.727,0.11-1.103c-0.848-3.57-1.857-6.89-2.465-10.549
		c-0.07-1.913-2.941-1.848-2.926,0.076c0.032,0.899,0.301,1.787,0.474,2.669c0.644,2.894,1.378,5.767,2.112,8.64
		C124.57,264.731,126.413,264.897,126.958,263.766z"/>
	<path style="fill:#060606;" d="M127.418,267.749c-0.797,0-1.445,0.72-1.425,1.501c0.021,0.813,0.705,1.425,1.501,1.425
		c0.797,0,1.445-0.72,1.425-1.501C128.898,268.362,128.214,267.749,127.418,267.749z"/>
	<path style="fill:#060606;" d="M336.081,278.14c-2.053-0.282-1.767,1.902-1.986,3.262c-0.357,2.23-0.847,4.429-1.474,6.598
		c-0.384,1.281-0.824,2.543-1.252,3.81c-0.254,0.754,0.099,1.598,0.864,1.88c0.726,0.27,1.625-0.105,1.88-0.863
		c0.732-2.128,1.448-4.267,1.974-6.457c0.42-1.749,0.767-3.522,1.003-5.306C337.217,279.967,337.502,278.472,336.081,278.14z"/>
	<path style="fill:#060606;" d="M328.698,297.918c0.49,1.503,2.717,1.234,2.852-0.315
		C331.646,295.243,328.107,295.64,328.698,297.918z"/>
	<path style="fill:#060606;" d="M395.768,249.693c1.973,0.61,2.179-1.989,2.697-3.276c0.76-2.136,1.364-4.325,1.552-6.593
		c0.538-2.439-2.733-3.055-2.896-0.632c-0.076,2.108-0.708,4.213-1.414,6.249C395.403,246.793,393.904,248.881,395.768,249.693z"/>
	<path style="fill:#060606;" d="M394.387,254.004c1.868,0.376,2.529-2.431,0.646-2.894
		C393.146,250.742,392.51,253.543,394.387,254.004z"/>
	<path style="fill:#060606;" d="M347.961,331.408c4.298,0.364,8.641,0.071,12.947,0.453c1.918,0.107,2.15-2.719,0.243-2.917
		c-4.183-0.323-8.382-0.165-12.565-0.396C346.703,328.197,346.107,330.954,347.961,331.408z"/>
	<path style="fill:#060606;" d="M366.069,332.606c0.797,0,1.426-0.769,1.388-1.534c-0.018-0.378-0.189-0.742-0.466-0.999
		c-0.297-0.276-0.67-0.389-1.069-0.389c-0.797,0-1.426,0.769-1.388,1.534c0.018,0.378,0.189,0.741,0.466,0.999
		C365.298,332.493,365.67,332.606,366.069,332.606z"/>
	<path style="fill:#060606;" d="M144.196,395.823c-2.947-0.06-5.898-0.075-8.833-0.373c-0.973-0.129-1.948-0.268-2.91-0.464
		c-0.429-0.192-0.911-0.225-1.344,0.005c-1.708,1.143-0.425,2.948,1.322,2.971c3.83,0.72,7.741,0.71,11.624,0.784
		C145.966,398.807,146.097,395.925,144.196,395.823z M133.146,396.794c0.041-0.107,0.071-0.219,0.088-0.336
		C133.22,396.573,133.202,396.693,133.146,396.794z"/>
	<path style="fill:#060606;" d="M151.703,395.674c-0.392,0-0.758,0.11-1.053,0.378c-0.286,0.259-0.46,0.627-0.478,1.012
		c-0.037,0.768,0.592,1.531,1.391,1.531c0.393,0,0.758-0.109,1.053-0.378c0.286-0.259,0.46-0.627,0.478-1.012
		C153.13,396.438,152.501,395.674,151.703,395.674z"/>
	<g>
		<path style="fill:#060606;" d="M97.187,308.106c-0.58-5.149-1.238-10.291-1.674-15.455c-0.109-1.056-0.144-2.123-0.279-3.175
			c-0.143-1.268-1.862-1.728-2.616-0.7c-0.51,0.621-0.192,1.439-0.185,2.159c0.116,1.367,0.229,2.733,0.356,4.099
			c0.443,4.487,0.987,8.963,1.495,13.443C94.572,310.383,97.38,310.008,97.187,308.106z"/>
		<path style="fill:#060606;" d="M99.502,349.832c0.771,0.004,1.501-0.658,1.471-1.454c-0.121-3.308-0.469-6.606-0.853-9.892
			c-0.441-3.656-0.859-7.316-1.134-10.989c-0.103-1.519-0.317-3.036-0.312-4.558c0.088-2.398-3.415-2.23-2.921,0.682
			c0.436,7.77,1.643,15.466,2.22,23.221C98.043,347.932,97.822,349.792,99.502,349.832z"/>
		<path style="fill:#060606;" d="M87.026,317.118c0.796,0.007,1.487-0.596,1.515-1.409c0.028-0.78-0.611-1.509-1.409-1.516
			c-3.185-0.027-6.37-0.011-9.552,0.127c-1.846,0.08-3.691,0.178-5.536,0.292c-1.431,0.237-4.179-0.427-4.121,1.766
			c0.211,1.702,2.125,1.279,3.342,1.213c2.562-0.165,5.126-0.309,7.693-0.401C81.646,317.095,84.336,317.086,87.026,317.118z"/>
		<path style="fill:#060606;" d="M101.585,315.942c0.204,0.88,1.136,1.284,1.946,1.046c1.24-0.196,2.496-0.312,3.744-0.44
			c2.542-0.263,5.091-0.47,7.643-0.611c2.36-0.112,4.725-0.185,7.086-0.276c0.453,0.002,0.9-0.076,1.236-0.404
			c0.938-0.81,0.305-2.553-0.951-2.526c-5.415,0.179-10.834,0.381-16.22,1.002C104.536,314.062,101.263,313.534,101.585,315.942z"/>
		<path style="fill:#060606;" d="M86.105,323.428c-3.049,4.897-6.412,9.587-9.76,14.282c-0.712,1.293-3.162,3.121-1.304,4.488
			c1.208,0.762,2.107-0.475,2.683-1.404c2.265-3.154,4.732-6.632,6.986-9.876c1.053-1.519,2.045-3.078,3.04-4.635
			c0.511-0.993,1.805-2.012,0.966-3.193C88.027,322.125,86.591,322.419,86.105,323.428z"/>
		<path style="fill:#060606;" d="M103.209,308.733c0.593,0.485,1.589,0.438,2.058-0.205c0.704-0.962,1.41-1.923,2.099-2.896
			c2.031-2.85,3.897-5.812,5.841-8.718c1.152-1.344-0.793-3.252-2.13-1.998c-1.172,1.445-2.023,3.132-3.105,4.647
			c-1.064,1.576-2.121,3.158-3.223,4.708C104.053,305.594,101.641,307.244,103.209,308.733z"/>
		<path style="fill:#060606;" d="M85.057,307.052c1.495,1.19,3.319-1.047,1.852-2.264c-2.624-2.029-5.113-4.231-7.792-6.189
			c-0.771-0.481-1.397-1.275-2.293-1.512c-1.322-0.281-2.292,1.502-1.311,2.447c1.602,1.227,3.241,2.405,4.797,3.693
			C81.884,304.513,83.455,305.801,85.057,307.052z"/>
		<path style="fill:#060606;" d="M107.609,324.07c-0.667-1.476-2.946-0.862-2.787,0.753c0.403,1.633,2.552,2.982,3.711,4.184
			c2.424,2.153,4.762,4.392,7.158,6.58c1.847,1.638,3.696,3.279,5.321,5.144c1.325,1.382,3.411-0.606,2.127-2.01
			C118.326,333.527,112.57,329.123,107.609,324.07z"/>
	</g>
	<g>
		<path style="fill:#060606;" d="M420.632,155.467c0.024,1.914,2.909,1.903,2.926,0c-0.018-5.572-0.307-11.142-0.254-16.713
			c0.026-0.797-0.685-1.463-1.463-1.463c-1.858,0.071-1.449,2.257-1.469,3.545C420.427,145.712,420.6,150.589,420.632,155.467z"/>
		<path style="fill:#060606;" d="M421.052,168.924c0.066,7.906,0.598,15.805,0.563,23.713c0.021,1.918,2.905,1.899,2.926,0
			c0.047-8.017-0.54-16.026-0.551-24.04C423.923,166.393,420.775,166.761,421.052,168.924z"/>
		<path style="fill:#060606;" d="M430.759,161.954c6.947-0.136,13.883-0.617,20.832-0.771c1.927-0.057,1.91-2.891,0-2.926
			c-2.331,0.067-4.66,0.154-6.991,0.238c-4.615,0.152-9.224,0.486-13.841,0.533C428.845,159.05,428.854,161.934,430.759,161.954z"/>
		<path style="fill:#060606;" d="M392.783,166.654c1.651-0.297,3.304-0.542,4.971-0.731c2.416-0.273,4.837-0.506,7.251-0.791
			c2.638-0.364,5.342-0.64,7.925-1.163c1.096-0.583,0.874-2.401-0.35-2.674c-1.975-0.165-3.945,0.526-5.917,0.678
			c-2.444,0.324-4.897,0.562-7.348,0.832c-2.319,0.242-4.637,0.514-6.929,0.95c-0.784,0.141-1.361,0.832-1.251,1.648
			C391.236,166.17,392.01,166.797,392.783,166.654z"/>
		<path style="fill:#060606;" d="M412.357,169.359c-3.479,5.026-7.43,9.711-11.135,14.57c-0.489,0.63-0.366,1.565,0.264,2.052
			c1.899,1.241,2.912-1.724,4.019-2.789c2.691-3.458,5.425-6.885,8.037-10.404c0.36-0.49,0.693-0.997,1.032-1.501
			c0.494-0.514,0.746-1.276,0.349-1.939C414.372,168.37,412.921,168.431,412.357,169.359z"/>
		<path style="fill:#060606;" d="M430.071,154.38c0.738,0.454,1.694,0.095,2.082-0.645c0.972-1.434,1.982-2.878,2.987-4.327
			c1.047-1.51,2.083-3.028,3.112-4.551c0.444-0.943,1.636-1.579,1.525-2.711c-0.111-0.811-0.856-1.332-1.649-1.252
			c-1.457,0.298-2.375,2.714-3.303,3.824c-1.668,2.465-3.515,5.034-5.279,7.661C429.1,153.04,429.414,153.996,430.071,154.38z"/>
		<path style="fill:#060606;" d="M402.76,147.292c3.705,2.791,7.592,5.363,11.24,8.233c1.522,1.156,3.281-1.131,1.789-2.316
			c-3.582-2.831-7.395-5.358-11.056-8.083C403.205,143.62,401.077,145.974,402.76,147.292z"/>
		<path style="fill:#060606;" d="M431.709,171.682c3.276,3.525,6.688,6.959,9.537,10.848c1.183,1.506,3.457-0.264,2.316-1.788
			c-2.96-4.05-6.531-7.612-9.933-11.286c-0.659-0.697-1.335-1.384-1.973-2.1c-0.245-0.516-0.746-0.902-1.355-0.899
			c-0.797,0-1.463,0.666-1.463,1.463C429.039,169.471,430.789,170.495,431.709,171.682z"/>
	</g>
	<path style="fill:#060606;" d="M391.481,300.505c-1.835-1.807-4.992-2.473-7.322-1.3c-4.503,2.154-4.085,10.27,1.049,11.307
		c4.688,1.236,8.276-2.973,7.203-7.486C392.788,302.115,392.079,301.155,391.481,300.505z M389.653,304.886
		c-0.03,1.452-1.065,2.871-2.602,2.887c-3.081,0.421-3.914-3.526-2.24-5.491c1.271-1.205,3.595-0.823,4.713,0.423
		C389.345,303.419,389.772,304.151,389.653,304.886z"/>
	<path style="fill:#060606;" d="M76.874,152.823c5.589,2.535,10.759-4.179,8.895-9.4c0.881-3.625-4.989-5.846-7.884-5.176
		C71.177,139.616,70.792,150.267,76.874,152.823z M82.682,142.437c-0.495,1.117,0.727,2.12,0.524,3.301
		c0.014,2.136-1.54,4.661-3.859,4.687C72.358,149.477,75.563,136.799,82.682,142.437z"/>
	<path style="fill:#060606;" d="M88.973,214.782c-3.405,0.018-6.808,0.093-10.212,0.147c-2.462,0.029-4.924,0.053-7.386,0.085
		c3.404-3.372,6.787-6.763,10.091-10.231c1.514-1.147-0.304-3.479-1.788-2.316c-3.567,3.668-7.175,7.305-10.804,10.917
		c-0.129-4.611-0.269-9.222-0.413-13.833c-0.022-1.919-2.907-1.897-2.926,0c0.124,4.069,0.247,8.137,0.363,12.207
		c-3.713-3.642-7.519-7.193-11.314-10.738c-1.701-1.736-4.409,0.868-0.914,3.067c3.795,3.679,7.676,7.31,11.455,11.037
		c-3.244,0.077-6.487,0.191-9.727,0.382c-1.902,0.1-3.803,0.232-5.705,0.348c-1.186-0.038-2.887,0.144-2.709,1.732
		c0.104,0.794,0.902,1.395,1.688,1.245c5.138-0.37,10.281-0.592,15.428-0.738c-3.819,3.782-7.624,7.577-11.471,11.33
		c-0.571,0.556-0.557,1.512,0,2.069c0.57,0.57,1.498,0.557,2.07,0c1.947-1.891,3.888-3.788,5.805-5.709
		c1.864-1.87,3.741-3.728,5.62-5.584c0.155,6.281,0.279,12.562,0.337,18.845c0.011,0.797,0.657,1.463,1.463,1.463
		c0.789,0,1.474-0.666,1.463-1.463c-0.043-2.934-0.06-5.866-0.119-8.799c-0.065-3.732-0.151-7.462-0.245-11.193
		c4.468,4.621,8.692,9.459,12.338,14.772c0.962,1.651,3.489,0.135,2.527-1.477c-2.25-3.519-5.049-6.671-7.731-9.865
		c-1.364-1.546-2.761-3.063-4.18-4.559c5.665-0.092,11.332-0.134,16.997-0.214c0.797-0.004,1.463-0.663,1.463-1.463
		C90.436,215.451,89.771,214.778,88.973,214.782z"/>
	<path style="fill:#060606;" d="M449.516,307.71c-3.405,0.018-6.808,0.093-10.212,0.147c-2.462,0.029-4.924,0.053-7.386,0.085
		c3.404-3.372,6.787-6.763,10.091-10.231c1.514-1.147-0.304-3.479-1.788-2.316c-3.567,3.668-7.175,7.305-10.804,10.918
		c-0.129-4.611-0.269-9.222-0.413-13.833c-0.022-1.919-2.906-1.897-2.926,0c0.124,4.069,0.247,8.138,0.363,12.207
		c-3.713-3.642-7.519-7.193-11.314-10.737c-1.701-1.736-4.409,0.868-0.913,3.067c3.795,3.679,7.675,7.31,11.455,11.037
		c-3.244,0.077-6.487,0.191-9.727,0.382c-1.902,0.1-3.803,0.232-5.705,0.348c-1.186-0.038-2.887,0.144-2.709,1.732
		c0.104,0.794,0.902,1.395,1.688,1.245c5.138-0.37,10.281-0.592,15.428-0.738c-3.819,3.782-7.624,7.577-11.471,11.33
		c-0.572,0.556-0.557,1.511,0,2.069c0.57,0.57,1.497,0.557,2.07,0c1.947-1.891,3.888-3.788,5.805-5.709
		c1.864-1.87,3.741-3.728,5.62-5.584c0.155,6.281,0.279,12.562,0.337,18.845c0.011,0.797,0.657,1.463,1.463,1.463
		c0.789,0,1.474-0.666,1.463-1.463c-0.043-2.934-0.06-5.866-0.119-8.799c-0.065-3.732-0.151-7.462-0.245-11.193
		c4.468,4.621,8.692,9.459,12.338,14.772c0.962,1.651,3.489,0.136,2.527-1.477c-2.25-3.519-5.049-6.671-7.731-9.865
		c-1.364-1.546-2.761-3.063-4.18-4.559c5.665-0.093,11.332-0.134,16.997-0.214c0.797-0.004,1.463-0.663,1.463-1.463
		C450.979,308.379,450.314,307.706,449.516,307.71z"/>
	<path style="fill:#060606;" d="M347.319,206.445c-0.219-1.904-0.296-3.857-1.114-5.622c-0.243-0.457-0.602-0.823-0.937-1.207
		c-0.194-0.255-0.419-0.419-0.655-0.511c-1.142-1.495-2.72-2.653-4.331-3.59c-1.984-1.152-4.115-2.008-6.276-2.766
		c-2.327-0.816-4.723-1.442-7.125-1.993c-2.65-0.607-5.323-1.101-8.009-1.519c-0.116-1.057-0.249-2.112-0.41-3.163
		c-2.412-14.972-9.552-28.976-19.106-40.65c-7.76-9.291-17.056-17.777-28.106-22.932c-12.443-5.415-26.324-8.143-39.876-6.714
		c-13.021,1.672-25.99,6.314-36.339,14.52c-4.201,3.232-7.826,7.089-11.107,11.234c-1.889-2.204-3.937-4.319-6.588-5.523
		c-6.777-3.086-10.112,2.856-6.196,7.89c0.715,1.124,1.586,2.139,2.506,3.109c1.19,1.271,2.511,2.39,3.912,3.405
		c-0.703,1.073-1.387,2.16-2.029,3.27c-6.092-4.265-12.745-7.703-18.998-11.729c-4.485-3.193-9.775-6.146-15.363-6.976
		c-9.04-1.344-19.488,1.435-24.866,9.244c-5.461,7.94-1.715,16.615,5.777,21.489c3.763,3.611,31.414,14.036,23.244,20.326
		c-1.965,0.842-4.262,0.363-6.303-0.003c-5.429-1.143-11.039-2.487-16.593-1.455c-7.388,1.111-15.645,7.538-12.097,15.709
		c1.784,3.863,5.79,5.837,9.183,8.065c2.051,1.397,4.838,3.154,4.859,5.573c-2.481,1.269-4.891,2.674-7.15,4.305
		c-1.738,1.255-3.382,2.684-4.711,4.374c-1.262,1.606-2.173,3.556-2.134,5.631c0.004,0.228,0.025,0.454,0.054,0.677
		c-0.494,0.328-0.767,0.945-0.628,1.55c1.617,7.23,3.008,14.508,4.782,21.702c5.913,23.51,13.691,47.007,26.279,67.843
		c7.658,12.103,17.476,22.991,28.964,31.591c-7.151,2.206-14.254,4.569-21.274,7.163c-5.267,1.947-10.494,4.019-15.626,6.301
		c-5.384,2.395-10.68,4.991-15.75,8.001c-2.49,1.478-4.913,3.085-7.199,4.863c-1.114,0.867-2.193,1.78-3.209,2.76
		c-1.031,0.994-2.016,2.053-2.852,3.219c-0.446,0.622-0.874,1.267-1.223,1.949c-0.303,0.594-0.561,1.199-0.777,1.829
		c-0.37,1.081-0.518,2.266-0.409,3.413c-0.644,0.701-0.998,2.172-0.327,4.587c2.713,8.118,11.749,11.141,19.434,12.519
		c7.634,1.27,15.327,2.32,23.055,2.783c35.942,1.472,72.006-1.697,107.369-8.087c20.24-3.284,40.602-6.38,60.272-12.309
		c20.481-6.83,96.6-25.509,94.073-51.406c0.08-0.621-0.205-1.224-0.652-1.592c-0.041-0.243-0.092-0.484-0.151-0.723
		c-0.605-2.428-2.47-4.396-4.488-5.768c-2.349-1.596-4.993-2.701-7.683-3.577c-2.768-0.902-5.61-1.583-8.47-2.116
		c-5.817-1.085-11.707-1.696-17.608-2.08c-8.808-0.573-17.651-0.607-26.471-0.378c-2.143,0.055-4.285,0.13-6.427,0.219
		c-0.151-0.039-0.317-0.056-0.498-0.046c-0.659,0.041-1.32,0.091-1.98,0.154c-0.814,0.038-1.628,0.078-2.442,0.12
		c1.546-2.33,3.011-4.717,4.464-7.106c2.913-4.577,5.702-9.222,8.102-14.091c0.082-0.122,0.141-0.249,0.18-0.378
		c1.406-0.36,2.812-0.72,4.208-1.12c11.78-3.397,23.488-7.644,33.898-14.216c8.704-5.664,14.632-14.576,19.172-23.738
		c4.493-9.094,8.033-19.021,7.319-29.31c-0.627-7.339-2.911-15.834-7.755-21.521c-3.646-3.828-8.236-6.988-13.324-8.523
		c-10.207-2.755-20.701,0.847-30.122,4.723c-2.354,0.961-4.69,1.964-7.001,3.023C347.654,209.569,347.525,208.002,347.319,206.445z
		 M347.659,211.14C347.659,211.14,347.659,211.14,347.659,211.14c-0.001-0.035-0.002-0.066-0.003-0.102
		C347.657,211.067,347.658,211.105,347.659,211.14z M179.994,152.038c1.877,1.158,3.841,2.186,5.797,3.173
		c1.779,0.925,3.683,1.785,5.534,2.576c1.477,0.591,2.825,1.557,4.379,1.933c0.954,0.191,1.887-0.589,1.893-1.555
		c0.03-0.679-0.4-1.292-0.829-1.779c-1.518-1.596-3.187-3.051-4.58-4.769c-1.402-1.653-2.744-3.358-4.131-5.023
		c-0.007-0.01-0.013-0.021-0.02-0.031c-0.729-0.92-1.461-1.837-2.199-2.749c4.939-6.244,10.755-11.847,17.691-15.838
		c10.437-5.831,22.303-9.476,34.299-9.678c12.408,0.104,24.916,2.904,35.924,8.698c13.091,7.75,23.95,19.146,31.682,32.204
		c4.389,7.594,7.865,15.773,9.604,24.394c0.357,1.734,0.634,3.46,0.844,5.21c-0.828-0.112-1.657-0.22-2.486-0.321
		c-0.456-0.065-0.913-0.118-1.371-0.161c-4.346-0.496-8.71-0.849-13.076-1.09c-0.317-0.018-0.634-0.031-0.95-0.047
		c-7.132-2.068-11.335-8.872-17.11-13.126c-6.623-4.936-13.209-6.668-20.879-2.964c-13.332,6.045-20.951,0.01-28.951-10.51
		c-3.578-5.133-10.554-7.864-16.517-5.527c-6.544,2.552-9.472,11.133-16.829,11.918c-7.182,0.399-12.299-5.622-17.472-9.705
		c-0.764-0.641-1.546-1.257-2.337-1.859C178.556,154.263,179.268,153.144,179.994,152.038z M293.24,205.135
		c-2.014-1.08-4.014-2.193-5.984-3.351c-1.707-1.033-3.453-2.027-5.033-3.251c-1.461-1.265,0.574-3.503,1.975-2.163
		c3.267,2.316,6.807,4.202,10.303,6.123C296.224,203.286,294.928,205.987,293.24,205.135z M262.425,207.119
		c-7.38-4.599-14.197-10.247-19.61-17.082c-0.954-1.503-3.012-3.423-3.079-5.191c0.177-1.241,2.006-1.648,2.655-0.549
		c0.364,0.623,0.776,1.22,1.184,1.815c3.98,5.757,9.192,10.541,14.784,14.703c1.829,1.376,3.701,2.694,5.673,3.858
		C265.624,205.674,264.004,208.189,262.425,207.119z M198.883,188.412c-0.502-0.619-0.482-1.523,0.135-2.065
		c0.581-0.511,1.563-0.485,2.065,0.135c4.74,5.826,9.584,11.582,14.912,16.885c3.635,3.58,7.497,6.925,11.562,10.01
		c1.475,1.112,2.963,2.211,4.503,3.233c1.585,1.022-0.036,3.505-1.608,2.445c-8.507-5.754-16.139-12.738-22.943-20.416
		C204.544,195.31,201.691,191.875,198.883,188.412z M199.202,226.834c-11.652-6.381-23.575-12.65-33.744-21.288
		c-0.543-0.584-0.451-1.551,0.134-2.065c1.229-1.047,2.304,0.417,3.241,1.117c6.471,5.176,13.556,9.5,20.745,13.592
		c3.609,2.034,7.216,4.077,10.884,6.003C202.166,224.998,200.902,227.679,199.202,226.834z M154.527,147.169
		c0.264-0.53,0.78-0.824,1.354-0.899c1.332-0.173,2.592,0.5,3.711,1.138c1.379,0.787,2.717,1.644,4.065,2.483
		c0.246,0.153,0.49,0.311,0.73,0.471c0.125,0.079,0.25,0.158,0.374,0.237c0.683,0.433,1.382,0.839,2.072,1.259
		c0.698,0.426,1.39,0.873,2.051,1.354c0.62,0.451,1.231,0.941,1.725,1.531c0.271,0.322,0.504,0.692,0.552,1.119
		c0.023,0.204,0.01,0.408-0.041,0.607c-0.062,0.238-0.194,0.437-0.361,0.613c-0.374,0.395-0.903,0.535-1.428,0.583
		c-0.146,0.013-0.29,0.019-0.434,0.019c-0.553,0-1.094-0.089-1.64-0.209c-0.732-0.162-1.438-0.422-2.135-0.696
		c-1.418-0.558-2.825-1.196-4.141-1.968c-0.558-0.327-1.087-0.702-1.619-1.07c-0.535-0.369-1.054-0.754-1.569-1.152
		c0.027,0.021,0.054,0.042,0.081,0.063c-0.051-0.04-0.104-0.08-0.155-0.12c0.027,0.021,0.054,0.042,0.081,0.063
		c-0.572-0.442-1.177-0.847-1.724-1.322c-0.307-0.267-0.587-0.559-0.849-0.87c-0.287-0.339-0.558-0.73-0.716-1.148
		c-0.137-0.361-0.196-0.732-0.188-1.117C154.332,147.809,154.376,147.468,154.527,147.169z M153.613,172.522
		c0.08-0.725,0.307-1.394,0.595-2.06c0.267-0.613,0.551-1.217,0.828-1.825c0.186-0.411,0.371-0.824,0.544-1.241
		c0.197-0.471,0.377-0.951,0.574-1.423c0.215-0.516,0.471-1.01,0.796-1.467c0.322-0.451,0.711-0.832,1.135-1.186
		c0.763-0.634,1.701-1.044,2.67-1.239c0.525-0.105,1.045-0.166,1.581-0.169c0.007,0,0.013,0,0.019,0
		c0.486,0,0.975,0.105,1.449,0.198c0.59,0.116,1.184,0.197,1.783,0.267c0.502,0.056,1.005,0.099,1.51,0.124
		c0.44,0.022,0.879,0.037,1.318,0.075c0.509,0.046,1.016,0.102,1.523,0.162c0.467,0.055,0.923,0.149,1.374,0.281
		c0.368,0.109,0.739,0.227,1.09,0.386c0.577,0.092,1.14,0.226,1.689,0.44c0.685,0.267,1.294,0.662,1.863,1.121
		c0.562,0.452,1.041,1.002,1.417,1.617c0.44,0.718,0.761,1.569,0.815,2.415c0.033,0.518-0.002,1.028-0.13,1.531
		c-0.025,0.098-0.054,0.193-0.086,0.288c-0.006,0.155-0.023,0.311-0.05,0.466c-0.105,0.598-0.358,1.161-0.725,1.644
		c-0.291,0.383-0.651,0.709-1.013,1.02c-0.73,0.627-1.53,1.19-2.344,1.698c-0.811,0.507-1.662,0.932-2.56,1.257
		c-0.992,0.359-2.047,0.531-3.1,0.519c-0.638-0.009-1.275-0.062-1.914-0.08c-0.683-0.005-1.363,0.024-2.041,0.096l0,0
		c-0.002,0-0.004,0-0.005,0c-1.043,0.124-2.075,0.336-3.123,0.409c-0.293,0.02-0.588,0.034-0.882,0.034
		c-0.245,0-0.489-0.009-0.731-0.033c-0.566-0.056-1.103-0.174-1.645-0.345c-0.556-0.175-1.086-0.442-1.6-0.713
		c-0.524-0.277-1.002-0.626-1.433-1.03C153.946,174.959,153.485,173.69,153.613,172.522z M146.047,160.6
		c-0.622,0.183-1.259,0.33-1.901,0.422c-0.629,0.09-1.263,0.144-1.896,0.191c-0.55,0.041-1.1,0.072-1.652,0.072
		c-0.054,0-0.109-0.001-0.163-0.001c-0.656-0.007-1.308-0.049-1.961-0.111c-1.051-0.097-2.093-0.28-3.118-0.533
		c-2.361-0.585-4.566-1.644-6.485-3.14c-0.989-0.771-1.911-1.737-2.483-2.861c-0.301-0.591-0.542-1.237-0.622-1.9
		c-0.082-0.684-0.046-1.352,0.138-2.018c0.327-1.185,1.161-2.202,2.139-2.919c0.958-0.701,2.101-1.118,3.268-1.301
		c0.784-0.122,1.575-0.176,2.369-0.176c1.336,0,2.674,0.153,3.983,0.394c1.066,0.195,2.117,0.465,3.16,0.761
		c0.191,0.054,0.383,0.109,0.573,0.167c0.392,0.101,0.783,0.21,1.173,0.323c1.162,0.338,2.316,0.722,3.426,1.209
		c0.831,0.365,1.625,0.783,2.374,1.294c0.015,0.01,0.03,0.021,0.046,0.032c0.467,0.329,0.918,0.683,1.297,1.116
		c0.453,0.519,0.834,1.102,1.062,1.757c0.214,0.619,0.323,1.28,0.258,1.935c-0.074,0.732-0.274,1.42-0.646,2.059
		c-0.583,1.003-1.504,1.811-2.483,2.415C147.327,160.144,146.697,160.408,146.047,160.6z M123.992,203.119
		c-0.107-0.086-0.213-0.172-0.319-0.262c-0.609-0.4-1.169-0.876-1.672-1.401c-0.681-0.711-1.221-1.619-1.471-2.573
		c-0.234-0.898-0.334-1.85-0.079-2.757c0.241-0.86,0.694-1.616,1.335-2.239c0.493-0.48,1.069-0.835,1.688-1.099
		c0.455-0.24,0.944-0.425,1.45-0.557c1.012-0.267,2.072-0.329,3.113-0.386c0.465-0.026,0.93-0.036,1.394-0.036
		c0.564,0,1.127,0.015,1.691,0.038c1.04,0.043,2.079,0.108,3.103,0.299c1.145,0.214,2.271,0.551,3.334,1.029
		c0.568,0.254,1.124,0.551,1.636,0.904c0.482,0.332,0.92,0.704,1.326,1.126c0.416,0.431,0.759,0.938,1.018,1.477
		c0.221,0.458,0.367,0.939,0.436,1.444c0.08,0.576,0,1.171-0.164,1.725c-0.169,0.573-0.465,1.102-0.791,1.598
		c-0.319,0.486-0.72,0.92-1.143,1.315c-0.813,0.759-1.763,1.342-2.761,1.824c-1.02,0.493-2.118,0.807-3.232,0.998
		c-0.559,0.096-1.129,0.138-1.694,0.174c-0.288,0.018-0.58,0.029-0.872,0.029c-0.266,0-0.531-0.009-0.795-0.027
		c-1.2-0.083-2.361-0.359-3.474-0.814C125.942,204.493,124.928,203.863,123.992,203.119z M113.373,228.805
		c-0.026-0.176-0.048-0.349-0.065-0.526c-0.002-0.177,0-0.353,0.007-0.53c0.021-0.176,0.047-0.349,0.077-0.524
		c0.046-0.186,0.096-0.369,0.15-0.553c0.096-0.258,0.201-0.51,0.316-0.76c0.174-0.33,0.362-0.649,0.565-0.962
		c0.302-0.425,0.622-0.83,0.962-1.225c0.531-0.578,1.093-1.12,1.679-1.641c1.022-0.868,2.096-1.659,3.207-2.408
		c0.747-0.488,1.506-0.954,2.275-1.404c-0.985,1.978-1.886,4.132-2.182,6.283c-0.893,0.845-1.676,1.863-1.774,3.124
		c-0.248,3.151,3.47,4.607,5.895,5.372c1.89,0.596,3.847,0.988,5.799,1.31c2.102,0.349,4.219,0.61,6.341,0.813
		c4.159,0.399,8.336,0.627,12.512,0.752c3.213,0.096,6.427,0.141,9.642,0.141c1.109,0,2.219-0.005,3.328-0.016
		c8.784-0.083,17.565-0.421,26.335-0.929c8.923-0.515,17.838-1.205,26.737-2.044c8.997-0.848,17.982-1.831,26.947-2.974
		c8.629-1.101,17.243-2.325,25.83-3.719c8.592-1.394,17.163-2.94,25.682-4.739c4.373-0.923,8.733-1.906,13.069-2.99
		c4.145-1.035,8.278-2.149,12.348-3.453c2.098-0.672,4.193-1.371,6.248-2.169c2.05-0.796,4.081-1.652,6.017-2.699
		c1.554-0.84,3.133-1.815,4.29-3.173c0.888-1.041,1.404-2.428,0.952-3.775c-0.469-1.4-1.709-2.299-2.978-2.948
		c-2.256-2.607-4.811-4.963-7.642-6.896c2.554,0.585,5.164,1.292,7.725,2.184c1.392,0.512,2.757,1.077,4.085,1.738
		c0.685,0.362,1.352,0.745,2.004,1.164c0.53,0.367,1.037,0.753,1.525,1.174c0.252,0.239,0.493,0.483,0.728,0.738
		c0.185,0.224,0.361,0.451,0.529,0.688c0.121,0.194,0.235,0.39,0.342,0.592c0.084,0.187,0.162,0.375,0.232,0.567
		c0.048,0.169,0.091,0.339,0.129,0.511c0.025,0.172,0.043,0.344,0.056,0.517c0.001,0.169-0.003,0.337-0.013,0.505
		c-0.021,0.174-0.048,0.346-0.08,0.518c-0.053,0.214-0.113,0.424-0.181,0.633c-0.095,0.25-0.201,0.495-0.317,0.737
		c-0.05,0.096-0.102,0.191-0.155,0.285c-0.11,0.19-0.226,0.377-0.346,0.561c-0.301,0.433-0.627,0.845-0.973,1.244
		c-0.507,0.56-1.049,1.084-1.612,1.587c-1.013,0.873-2.087,1.666-3.193,2.416c-2.191,1.441-4.489,2.697-6.838,3.86
		c-5.324,2.581-10.863,4.677-16.467,6.562c-4.835,1.602-9.721,3.048-14.643,4.359c-9.125,2.43-18.351,4.459-27.627,6.225
		c-4.546,0.856-9.103,1.654-13.67,2.382c-9.366,1.493-18.772,2.749-28.204,3.751c-9.595,1.02-19.213,1.792-28.848,2.312
		c-6.439,0.331-13.08,0.565-19.723,0.62c-9.552,0.081-19.108-0.144-28.632-0.892c-6.773-0.559-13.529-1.376-20.185-2.772
		c-2.836-0.624-5.636-1.358-8.386-2.296c-1.471-0.533-2.907-1.122-4.311-1.813c-0.723-0.383-1.426-0.789-2.114-1.232
		c-0.438-0.31-0.862-0.63-1.277-0.969c-0.319-0.291-0.622-0.589-0.915-0.905c-0.166-0.203-0.326-0.41-0.481-0.621
		c-0.121-0.192-0.236-0.385-0.348-0.583c-0.084-0.183-0.161-0.365-0.236-0.553C113.465,229.159,113.416,228.984,113.373,228.805z
		 M332.897,205.141c0.184,0.028,0.374,0.021,0.561-0.022c-0.017,0.007-0.035,0.012-0.053,0.019
		c-0.059,0.008-0.119,0.016-0.179,0.025c-0.054,0-0.109,0-0.164,0C333.007,205.156,332.951,205.151,332.897,205.141z
		 M391.404,356.019c-15.755,10.019-33.182,16.915-50.98,22.421c-25.752,8.794-52.012,15.92-78.974,19.828
		c-13.488,2.015-26.875,4.687-40.399,6.446c-18.789,1.824-37.561,3.667-56.471,3.685c-13.562,0.245-27.136-0.325-40.528-2.589
		c-5.805-0.82-15.559-2.922-18.952-8.55c0.359,0.3,0.732,0.58,1.117,0.837c2.423,1.619,5.13,2.793,7.91,3.655
		c2.956,0.915,5.96,1.635,9.006,2.183c6.21,1.114,12.495,1.699,18.79,2.056c4.932,0.281,9.876,0.39,14.817,0.39
		c1.006,0,2.012-0.004,3.017-0.013c6.261-0.053,12.521-0.261,18.773-0.599c12.475-0.674,24.926-1.804,37.331-3.281
		c12.494-1.489,24.949-3.298,37.35-5.429c11.997-2.062,23.947-4.397,35.831-7.035c11.585-2.571,23.114-5.418,34.539-8.626
		c11.508-3.232,22.941-6.783,34.15-10.944c5.477-2.034,10.909-4.194,16.246-6.575c5.56-2.481,11.026-5.203,16.223-8.382
		c1.309-0.801,2.601-1.637,3.851-2.527c1.138-0.811,2.272-1.637,3.343-2.536c0.805-0.675,1.594-1.374,2.346-2.108
		C397.596,351.418,394.481,353.981,391.404,356.019z M355.179,325.802c8.309,0.168,16.633,0.645,24.855,1.899
		c3.37,0.535,6.713,1.208,9.996,2.144c1.739,0.522,3.443,1.121,5.11,1.844c0.914,0.425,1.802,0.886,2.667,1.404
		c0.462,0.3,0.911,0.612,1.349,0.947c0.373,0.31,0.729,0.634,1.073,0.978c0.23,0.257,0.449,0.519,0.659,0.792
		c0.127,0.189,0.249,0.379,0.367,0.575c0.103,0.199,0.201,0.398,0.295,0.601c0.071,0.19,0.137,0.38,0.198,0.574
		c0.063,0.27,0.112,0.54,0.151,0.815c0.01,0.19,0.017,0.379,0.02,0.569c-0.012,0.203-0.029,0.404-0.05,0.606
		c-0.057,0.318-0.127,0.63-0.21,0.943c-0.114,0.338-0.238,0.668-0.377,0.997c-0.172,0.355-0.354,0.701-0.549,1.043
		c-0.409,0.651-0.854,1.269-1.333,1.871c-0.581,0.686-1.193,1.338-1.835,1.968c-1.281,1.212-2.637,2.321-4.046,3.381
		c-2.737,1.996-5.615,3.772-8.566,5.432c-6.858,3.788-14.028,6.959-21.296,9.87c-7.19,2.845-14.481,5.413-21.834,7.8
		c-11.149,3.62-22.446,6.781-33.806,9.667c-7.047,1.778-14.121,3.445-21.22,5.005c-11.864,2.606-23.795,4.92-35.772,6.938
		c-12.446,2.096-24.938,3.894-37.474,5.356c-8.147,0.931-16.502,1.748-24.874,2.371c-12.368,0.92-24.774,1.416-37.177,1.22
		c-8.448-0.168-16.898-0.649-25.259-1.913c-1.823-0.294-3.637-0.624-5.443-1.008c-1.64-0.349-3.261-0.772-4.871-1.238
		c-1.623-0.505-3.216-1.07-4.776-1.749c-0.845-0.395-1.668-0.819-2.471-1.29c-0.527-0.335-1.038-0.687-1.535-1.066
		c-0.313-0.263-0.616-0.533-0.911-0.817c-0.248-0.264-0.485-0.533-0.711-0.817c-0.186-0.267-0.36-0.538-0.523-0.82
		c-0.097-0.2-0.188-0.399-0.275-0.602c-0.064-0.189-0.125-0.377-0.18-0.568c-0.039-0.181-0.072-0.362-0.103-0.546
		c-0.022-0.252-0.033-0.502-0.034-0.754c0.013-0.202,0.032-0.401,0.055-0.602c0.061-0.323,0.134-0.638,0.221-0.955
		c0.092-0.264,0.189-0.525,0.292-0.785c0.189-0.406,0.391-0.799,0.611-1.189c0.35-0.557,0.723-1.091,1.123-1.614
		c0.701-0.853,1.448-1.654,2.241-2.423c1.208-1.124,2.482-2.159,3.798-3.154c2.813-2.051,5.77-3.874,8.805-5.576
		c6.761-3.727,13.833-6.857,20.995-9.722c9.453-3.752,19.088-7.023,28.809-10.008c0.001,0,0.002-0.001,0.003-0.001
		c0.005-0.001,0.009-0.003,0.014-0.004c0.007-0.002,0.013-0.004,0.021-0.006c0.187-0.056,0.376-0.11,0.561-0.172
		c0.248-0.083,0.46-0.228,0.625-0.412c6.418,4.498,13.326,8.282,20.64,11.184c-0.029,0.499,0.013,1.014,0.063,1.434
		c-0.256,5.534,4.79,8.271,9.442,9.604c7.621,2.137,15.526,3.078,23.429,3.182c9.603,0.206,19.27-0.217,28.764-1.722
		c13.771-1.829,27.427-5.322,39.86-11.632c3.352-1.815,7.63-3.643,8.732-7.638c0.622-2.354,0.261-4.804,0.017-7.192
		c4.794-3.877,9.205-8.262,13.221-12.958c0.272-0.309,0.528-0.624,0.771-0.867c1.392-1.595,2.831-3.147,4.231-4.735
		c1.499-1.649,2.886-3.383,4.199-5.172c0.812,0.092,1.551-0.417,2.456-0.502c0.937-0.155,1.854-0.286,2.779-0.387
		c1.594-0.074,3.187-0.144,4.781-0.201C342.366,325.772,348.774,325.685,355.179,325.802z M300.822,352.922
		c0.31,3.072,0.236,5.797-3.046,7.675c-22.557,13.439-55.79,17.178-81.666,14.878c-5.316-0.806-10.785-1.498-15.749-3.665
		c-3.119-1.457-4.113-2.941-4.203-5.971c11.634,3.863,23.884,5.955,36.106,6.643c15.823,0.306,31.429-3.479,46.454-8.131
		C286.767,361.879,294.144,357.902,300.822,352.922z M321.549,326.912c-2.261,3.058-4.578,6.095-7.024,9.018
		c-0.212,0.231-0.422,0.464-0.636,0.694c-0.078,0.085-0.139,0.18-0.189,0.279c-3.068,3.587-6.347,6.983-9.987,10.005
		c-12.732,10.891-25.451,15.39-41.627,18.967c-21.042,5.706-42.103,4.2-62.834-2.062c-23.292-7.543-42.771-24.722-55.822-45.216
		c-11.614-19.114-18.984-40.663-24.76-62.21c-1.206-4.638-2.306-9.302-3.317-13.986c-0.586-2.716-1.141-5.439-1.72-8.157
		c0.869,0.762,1.852,1.415,2.857,1.98c0.992,0.558,2.014,1.069,3.064,1.509c4.295,1.803,8.836,2.943,13.397,3.836
		c4.435,0.869,8.919,1.479,13.412,1.947c4.681,0.487,9.378,0.813,14.078,1.038c5.328,0.255,10.661,0.366,15.996,0.366
		c4.373,0,8.747-0.075,13.116-0.206c9.681-0.291,19.352-0.889,29-1.724c9.519-0.824,19.018-1.894,28.48-3.225
		c9.284-1.306,18.536-2.829,27.734-4.642c9.363-1.846,18.673-3.979,27.866-6.546c4.525-1.263,9.015-2.649,13.456-4.179
		c4.374-1.508,8.702-3.174,12.901-5.118c2.059-0.954,4.085-1.976,6.058-3.099c1.927-1.096,3.809-2.309,5.539-3.696
		c0.271-0.217,0.538-0.44,0.802-0.668c0.918,8.395,2.236,16.757,2.292,25.224c0.131,8.227,0.352,16.485-0.559,24.677
		c-1.336,10.209-2.923,20.416-5.131,30.476C335.251,304.88,329.088,316.443,321.549,326.912z M340.765,302.55
		c0.087-0.073,0.163-0.149,0.229-0.228C340.927,302.406,340.851,302.483,340.765,302.55z M383.414,206.055
		c5.537,1.504,11.606,5.748,14.599,10.677c3.873,7.157,5.675,15.538,4.76,23.647c-1.282,11.345-7.35,23.53-13.871,32.802
		c-5.331,7.888-13.598,12.976-22.153,16.76c-6.711,3.044-13.61,5.496-20.707,7.553c-1.966,0.579-3.942,1.113-5.93,1.612
		c-0.292,0.116-0.652,0.199-1.036,0.278c1.481-4.934,2.625-9.971,3.509-15.046c1.068,0.051,2.476-0.728,3.436-0.899
		c0.001,0,0.003-0.001,0.005-0.001c14.231-4.31,26.431-7.751,34.986-21.02c4.242-6.211,6.701-13.48,7.47-20.941
		c1.493-9.147,0.494-18.645-9.241-22.472c-5.971-2.319-12.513-0.843-18.451,0.851c-3.567,1.006-6.998,2.423-10.404,3.872
		c-0.99,0.415-1.989,0.81-2.981,1.222c-0.147,0.038-0.288,0.097-0.418,0.174c-0.361,0.153-0.719,0.31-1.077,0.47
		c-0.286-3.272-0.651-6.537-1.104-9.792c2.224-1.162,4.282-2.151,6.673-3.171C361.484,208.446,372.365,203.53,383.414,206.055z
		 M349.325,227.326c1.628-0.675,3.259-1.342,4.883-2.03c9.498-3.753,24.987-9.16,30.743,2.8c1.475,3.492,1.27,7.386,0.863,11.076
		c-0.501,4.499-1.215,9.011-2.851,13.254c-3.173,7.882-8.498,15.092-15.725,19.68c-5.559,3.377-11.828,5.319-17.987,7.285
		c-1.45,0.453-2.898,0.897-4.353,1.336c0.11-0.64,0.136-1.338,0.25-1.867c0.259-2.062,0.624-4.107,0.961-6.158
		c0.046-0.332,0.092-0.663,0.138-0.995c0.076-0.402,0.151-0.804,0.226-1.207c2.429-12.54,2.845-25.334,2.908-38.075
		C349.331,231.459,349.466,229.09,349.325,227.326z"/>
</g>
<g id="TEXTS">
	<g>
		<path style="fill:#060606;" d="M253.413,425.043c-1.792,5.555-6.493,6.356-11.69,6.408c3.707-3.645,6.414-8.394,7.363-13.527
			c0.267-1.445,0.471-3.42-0.069-4.919c-1.257-3.039-4.381-1.667-5.739,0.524c-3.207,5.359-4.473,11.667-5.926,17.697
			c-0.884,0.622-1.86,1.126-2.931,1.322c0.334-3.169,0.337-7.585-2.884-9.273c-0.594-1.694-2.781-2.125-4.343-1.778
			c-5.21,1.125-8.075,8.244-7.985,13.1c0.013,2.735,1.033,5.614,3.307,7.271c4.811,3.581,10.153-1.41,11.279-6.218
			c0.706-0.015,1.404-0.151,2.084-0.344c0.212-0.06,0.423-0.128,0.631-0.203c-0.764,3.741-1.608,7.47-2.171,11.248
			c-0.367,3.386-1.538,8.404,1.499,10.853c6.033,3.226,8.875-7.616,8.907-11.902c0.197-3.709-0.441-7.504-2.147-10.824
			c6.611-0.201,11.752-2.07,13.818-8.904C256.857,423.475,253.804,422.925,253.413,425.043z M226.146,440.064
			c-4.472-0.464-4.338-6.421-3.268-9.68c0.887-2.26,2.288-5.227,4.823-5.901c-2.641,3.426-0.858,9.035,3.1,10.602
			C230.135,437.291,228.595,439.699,226.146,440.064z M231.423,432.003c-1.77-0.944-2.857-4.668-0.976-5.886
			C231.764,427.718,231.6,430.052,231.423,432.003z M243.182,421.125c0.768-2.053,1.545-4.737,3.111-6.495
			c0.138,4.627-2.087,9.132-4.903,12.702C241.924,425.247,242.501,423.168,243.182,421.125z M240.879,450.186
			c-0.671,1.63-1.251,3.808-2.958,4.611c-2.999-0.761,1.225-16.699,1.642-19.501C242.149,439.734,242.26,445.333,240.879,450.186z"
			/>
		<path style="fill:#060606;" d="M230.773,446.417c-2.132-0.602-4.366-0.854-6.57-0.552c-2.484,0.351-8.352,1.18-9.66,3.41
			c-0.399,0.908,0.244,2.036,1.242,2.129c0.526,0.051,1.077-0.158,1.393-0.598c0.415-0.249,0.868-0.42,1.317-0.599
			c3.108-0.966,6.45-1.779,9.713-1.27c0.606,0.118,1.211,0.254,1.809,0.412C231.954,449.8,232.68,446.961,230.773,446.417z"/>
	</g>
	<g>
		<path style="fill:#060606;" d="M135.884,422.022c-4.609-8.677-21.165-11.51-30.278-12.937c0,0.003,0,0.005,0,0.008
			c-0.715-0.19-1.437,0.249-1.714,0.89c-0.359,0.254-0.635,0.681-0.714,1.297c-1.513,8.068-2.405,16.247-3.891,24.325
			c-0.9,4.958-1.663,9.944-2.588,14.9c-0.082,0.451,0.031,0.9,0.29,1.242c0,0.001,0,0.002,0.002,0.003
			c0.031,0.062,0.067,0.122,0.109,0.181c0.66,0.882,1.927,0.801,2.904,1.071c3.69,0.678,7.421,1.139,11.146,1.584
			c5.118,0.436,10.556,0.132,15.264-2.082C136.059,446.765,141.016,432.22,135.884,422.022z M132.889,431.655
			c-0.116,1.645-0.284,3.305-0.836,4.869c-0.772,2.307-2.005,4.366-3.497,6.344c-0.847,1.146-1.636,2.213-2.701,3.21
			c-1.074,0.945-2.333,1.555-3.683,2.046c-3.091,1.204-6.415,1.498-9.733,1.309c-3.303-0.139-6.62-0.634-9.813-1.534
			c0.001-0.004,0.001-0.008,0.002-0.012c0.387-2.179,0.697-4.37,1.04-6.553c1.588-7.011,2.499-14.14,3.621-21.232
			c0.224-1.753,0.517-3.497,0.773-5.245c0.497,0.043,0.991,0.111,1.488,0.155c1.68,0.102,3.216,0.429,4.879,0.851
			c5.39,1.56,11.31,2.956,15.303,7.227C131.846,425.391,133.127,428.468,132.889,431.655z"/>
		<path style="fill:#060606;" d="M168.652,432.979c-1.095-1.631-3.381-6.75-5.98-10.416c-0.001-0.002-0.003-0.004-0.004-0.006
			c-1.34-2.1-3.196-5.419-5.872-4.08c-0.931,0.603-1.523,1.514-2.046,2.476c0,0.001-0.001,0.002-0.001,0.002
			c-1.467,2.034-2.757,4.202-4.083,6.325c-4.791,8.055-9.425,16.204-14.077,24.341c-0.714,0.94-0.7,1.797-0.349,2.365
			c0,0,0,0.001,0.001,0.001c0.083,0.371,0.28,0.721,0.565,0.99c0.634,0.641,1.562,0.938,2.452,0.863
			c1.676-0.175,2.633-1.867,3.517-3.121c0.703-1.106,1.363-2.238,2.01-3.378c0.138-0.002,0.281-0.017,0.412-0.029
			c1.159-0.073,2.318-0.178,3.479-0.218c3.281-0.057,6.563-0.09,9.838-0.322c3.274-0.12,6.543-0.309,9.819-0.37
			c0.745-0.021,1.488-0.05,2.231-0.089c0.495,0.816,0.998,1.627,1.513,2.43c1.313,1.897,2.51,4.468,4.998,4.942
			c0.908,0.116,1.827-0.422,2.205-1.248c0.035-0.082,0.062-0.178,0.077-0.283c0.209-0.404,0.235-0.912-0.064-1.436
			C175.628,446.205,172.275,439.518,168.652,432.979z M157.399,444.779c-3.385-0.026-6.766,0.178-10.149,0.209
			c0.124-0.214,0.248-0.428,0.375-0.64c3.689-6.265,7.303-12.586,10.496-19.119c0.015,0.029,0.03,0.058,0.043,0.087
			c1.569,2.911,3.12,5.984,4.812,8.853c1.489,2.56,2.867,5.181,4.143,7.853c0.334,0.694,0.685,1.379,1.043,2.06
			C164.589,444.373,160.989,444.68,157.399,444.779z"/>
		<path style="fill:#060606;" d="M211.677,413.742c-1.152,0.04-2.939,2.223-4.284,4.022c-3.057,3.483-6.078,7.002-8.88,10.693
			c-2.086,2.69-3.811,5.566-6.186,8.032c-1.055-1.191-2.187-2.306-3.338-3.403c-3.936-3.74-7.828-7.53-12.122-10.865
			c-1.559-1.305-3.038-2.705-4.6-4.007c-0.725-0.702-1.679-1.3-2.722-0.969c-0.905,0.243-1.412,1.17-1.675,2.006
			c-0.693,2.307,1.061,4.333,2.7,5.729c1.689,1.534,3.481,2.945,5.219,4.421c2.56,2.155,5.11,4.323,7.678,6.47
			c2.256,1.879,4.597,3.657,6.803,5.595c0.14,1.275,0.245,2.555,0.335,3.833c0.155,2.219,0.376,4.43,0.626,6.639
			c0.229,2.183,0.286,5.358,3.002,5.824c5.712,0.651,4.309-5.991,3.875-9.59c-0.424-2.992-0.701-6-1.006-9.005
			c0.604-0.898,1.228-1.784,1.89-2.638c1.743-2.139,3.361-4.371,5.005-6.585c0.099-0.111,0.195-0.225,0.296-0.335
			c2.59-3.009,4.998-6.18,7.298-9.416c0.856-1.385,2.223-2.742,2.254-4.452C213.799,414.63,212.818,413.628,211.677,413.742z"/>
	</g>
	<g>
		<path style="fill:#060606;" d="M339.193,406.593c-0.125,0.004-0.257,0.024-0.393,0.061c-1.835,0.558-3.669,1.123-5.483,1.75
			c-1.296,0.472-2.623,0.873-3.936,1.3c-0.759-3.061-1.497-6.12-2.045-9.229c-0.105-0.614-0.223-1.234-0.352-1.856
			c0.076-0.022,0.152-0.045,0.228-0.067c2.641-0.786,5.242-1.694,7.883-2.477c1.874-0.605,5.546-1.381,5.232-3.955
			c-0.407-3.188-4.038-2.401-6.223-1.75c-1.938,0.549-3.846,1.192-5.756,1.827c-2.841,1.004-5.505,1.71-6.153,3.819
			c-0.697,1.652-0.117,3.901,0.225,5.541c0.492,2.446,0.957,4.899,1.437,7.347c0.631,2.929,1.162,5.878,1.738,8.818
			c0.472,2.911,1.148,5.921,1.718,8.833c0.426,2.041,0.827,4.097,1.487,6.078c0.308,1.057,0.986,2.231,2.224,2.236
			c1.894,0.085,2.387-1.748,2.215-3.297c-0.111-1.725-0.348-3.606-0.603-5.351c-0.586-3.897-1.29-7.776-2.124-11.628
			c0.631-0.199,1.259-0.406,1.894-0.597c1.881-0.508,3.757-1.032,5.585-1.712c0.871-0.298,1.759-0.585,2.552-1.059
			c1.149-0.684,2.152-2.174,1.412-3.489C341.357,406.586,340.283,406.348,339.193,406.593z"/>
		<path style="fill:#060606;" d="M315.814,401.975c-6.113-4.17-12.305-1.657-15.157,4.867c-3.657,9.131-1.87,27.209,9.978,29.055
			c4.169,0.519,8.225-2.217,10.133-5.815c2.322-4.396,2.121-9.6,1.9-14.427C322.418,410.556,319.949,405.072,315.814,401.975z
			 M317.599,421.505c-0.085,0.9-0.218,1.792-0.41,2.676c-0.161,0.713-0.359,1.416-0.606,2.104c-0.184,0.498-0.39,0.987-0.629,1.461
			c-0.198,0.385-0.423,0.768-0.674,1.135c-0.183,0.262-0.38,0.514-0.591,0.754c-0.18,0.196-0.369,0.383-0.57,0.558
			c-0.164,0.138-0.335,0.266-0.512,0.386c-0.169,0.106-0.341,0.203-0.521,0.289c-0.146,0.065-0.294,0.124-0.445,0.174
			c-0.148,0.044-0.297,0.081-0.449,0.109c-0.142,0.023-0.283,0.038-0.426,0.046c-0.151,0.003-0.301-0.001-0.452-0.012
			c-0.148-0.016-0.294-0.04-0.44-0.07c-0.171-0.041-0.339-0.091-0.504-0.149c-0.168-0.064-0.331-0.138-0.492-0.218
			c-0.188-0.099-0.369-0.208-0.546-0.325c-0.237-0.165-0.462-0.343-0.679-0.534c-0.265-0.242-0.514-0.498-0.749-0.768
			c-0.303-0.359-0.585-0.738-0.844-1.131l-0.006-0.009c-0.009-0.016-0.019-0.03-0.028-0.045c-0.325-0.505-0.631-1.065-0.907-1.639
			l-0.014-0.03c-0.002-0.004-0.004-0.009-0.006-0.014c-0.353-0.757-0.657-1.55-0.915-2.357c-0.287-0.909-0.528-1.911-0.71-2.927
			c-0.189-1.087-0.307-2.184-0.359-3.287l-0.001-0.02c0-0.013-0.001-0.026-0.002-0.038l0-0.011c-0.044-1.053-0.018-2.129,0.073-3.2
			l0.007-0.067c0.08-0.875,0.214-1.748,0.401-2.609c0.16-0.715,0.356-1.42,0.604-2.109c0.189-0.514,0.403-1.017,0.651-1.506
			c0.194-0.374,0.408-0.735,0.644-1.085c0.185-0.264,0.383-0.519,0.595-0.762c0.18-0.199,0.37-0.386,0.572-0.563
			c0.164-0.139,0.336-0.268,0.513-0.389c0.167-0.106,0.34-0.204,0.517-0.289c0.148-0.067,0.299-0.127,0.452-0.178
			c0.143-0.044,0.29-0.079,0.438-0.108c0.144-0.023,0.288-0.039,0.435-0.048c0.15-0.004,0.298-0.001,0.447,0.01
			c0.146,0.015,0.292,0.039,0.437,0.068c0.161,0.038,0.32,0.083,0.475,0.137c0.184,0.068,0.361,0.146,0.535,0.234
			c0.188,0.099,0.371,0.209,0.548,0.326c0.003,0.002,0.005,0.004,0.008,0.006l0.003,0.002c0.018,0.013,0.035,0.024,0.053,0.036
			c0.186,0.132,0.402,0.304,0.609,0.487c0.267,0.243,0.517,0.502,0.754,0.773c0.305,0.361,0.585,0.739,0.845,1.133l0.04,0.061
			c0.316,0.493,0.632,1.071,0.916,1.667c0.34,0.73,0.63,1.479,0.879,2.245c0.002,0.005,0.003,0.009,0.005,0.014
			c0.002,0.009,0.005,0.018,0.008,0.026c0.001,0.002,0.001,0.004,0.002,0.006c0.307,0.966,0.545,1.961,0.726,2.968
			c0.004,0.024,0.009,0.047,0.013,0.071c0.186,1.069,0.305,2.183,0.354,3.299c0,0,0,0.003,0,0.007
			c0.001,0.021,0.002,0.042,0.003,0.063C317.714,419.379,317.691,420.444,317.599,421.505z"/>
		<path style="fill:#060606;" d="M292.913,427.725c-1.368,1.421-1.426,3.565-1.992,5.366c-0.335,1.379-0.694,2.708-1.247,4.048
			c-0.165,0.375-0.342,0.756-0.64,1.046c-2.003,2.245-4.82,1.55-6.985-0.068c-1.841-1.377-3.221-3.302-4.106-5.416
			c-0.916-2.169-1.453-4.472-1.729-6.805c-0.443-3.016-0.491-6.029,0.375-9.014c0.569-1.971,1.348-3.963,2.784-5.472
			c1.818-1.796,4.534-2.878,7.069-2.171c1.396,0.364,2.493,1.458,3.361,2.572c0.756,1.018,1.413,2.363,2.67,2.775
			c0.242,0.095,0.502,0.156,0.784,0.176c0.96,0.091,1.893-0.594,2.155-1.514c0.212-0.931-0.072-1.858-0.531-2.695
			c-0.021-0.062-0.042-0.124-0.062-0.185c-0.666-1.662-1.942-3-3.387-4.026c-5.639-4.179-13.179-1.996-16.974,3.56
			c-7.055,9.842-4.141,29.623,8.078,34.075c6.807,2.019,11.07-1.953,12.66-7.83c0.027-0.08,0.055-0.161,0.081-0.243
			c0.339-1.035,0.598-2.091,0.86-3.146c0.281-1.38,0.971-2.896,0.255-4.247C295.849,427.144,293.993,426.742,292.913,427.725z"/>
		<path style="fill:#060606;" d="M362.45,382.084c-0.332-0.442-0.9-0.711-1.463-0.606c-0.448,0.136-0.885,0.306-1.322,0.482
			c-0.447,0.103-0.884,0.224-1.29,0.31c-2.204,0.579-4.36,1.337-6.52,2.059c-2.263,0.834-4.72,1.295-6.778,2.593
			c-2.339,1.845-1.236,5.247-0.914,7.755c0.54,3.423,1.11,6.841,1.698,10.256c1.143,5.547,2.059,11.141,3.246,16.68
			c0.407,1.799,0.754,3.501,1.324,5.289c0.274,1.051,0.973,1.924,2.103,2.057c0.492,0.09,0.902,0.073,1.246-0.03
			c1.487-0.225,2.066-2.025,2.028-3.357c-0.017-2.075-0.362-4.035-0.712-6.121c-0.469-2.641-0.889-5.29-1.288-7.943
			c-0.126-0.826-0.216-1.664-0.365-2.489c0.959-0.405,1.919-0.81,2.866-1.241c0.189-0.094,0.38-0.184,0.572-0.272
			c0.802-0.332,1.633-0.642,2.4-1.055c0.696-0.323,1.372-0.68,1.991-1.133c2.568-2.041,0.33-5.433-2.624-4.378
			c-2.271,0.573-4.467,1.445-6.659,2.291c-0.088-0.41-0.177-0.819-0.268-1.228c-0.684-3.313-1.388-6.622-1.929-9.96
			c-0.075-0.505-0.143-1.014-0.224-1.521c2.722-1.088,5.571-1.923,8.31-2.979c1.583-0.666,4.064-1.327,4.945-2.873
			c0.355-0.721,0.499-1.726-0.085-2.382C362.646,382.211,362.55,382.142,362.45,382.084z"/>
		<path style="fill:#060606;" d="M391.457,410.509c-1.553-0.03-3.023,0.603-4.478,1.066c-2.632,0.89-5.187,1.92-7.786,2.891
			c-0.062-0.31-0.126-0.62-0.188-0.93c-0.634-3.44-1.239-6.884-1.9-10.319c0.376-0.15,0.751-0.301,1.13-0.442
			c1.694-0.632,3.384-1.153,5.062-1.868c1.69-0.609,3.609-2.489,2.255-4.3c-0.69-0.96-1.919-1.358-3.05-1.061
			c-1.238,0.352-2.434,0.825-3.616,1.333c-0.907,0.293-1.81,0.594-2.708,0.91c-0.302-1.978-0.589-3.957-0.794-5.948
			c-0.623-3.549-1.058-7.126-1.485-10.703c1.714-0.619,3.423-1.252,5.138-1.871c1.578-0.584,3.187-1.092,4.746-1.723
			c1.152-0.508,2.342-1.245,2.885-2.427c0.744-1.452-0.354-3.34-1.971-3.446c-0.541-0.033-1.071,0.1-1.582,0.267
			c-1.281,0.42-2.535,0.92-3.778,1.444c-2.101,0.747-4.161,1.603-6.204,2.497c-1.825,0.869-4.205,1.607-4.814,3.771
			c-0.433,1.611-0.137,3.301,0.08,4.924c0.352,2.155,0.766,4.299,1.139,6.45c0.296,1.574,0.607,3.145,0.91,4.717
			c0.277,1.574,0.564,3.147,0.853,4.719c0.032,0.191,0.062,0.381,0.093,0.572c0.646,4.187,1.243,8.391,2.237,12.511
			c0.33,1.889,0.586,3.798,1.15,5.637v0.001c0.277,0.989,0.621,1.738,1.066,1.914c1.434,0.946,5.428-1.552,7.065-2.155
			c2.263-1.101,4.627-1.964,6.949-2.926c1.003-0.424,2.005-0.854,3-1.296c0.449-0.211,0.712-0.537,0.825-0.895
			C394.786,412.497,393.896,410.573,391.457,410.509z"/>
		<path style="fill:#060606;" d="M420.923,400.966c-0.443-0.365-1.019-0.588-1.647-0.567c-2.065,0.146-3.996,1.091-5.94,1.745
			c-2.962,1.059-5.783,2.458-8.728,3.562c-0.32,0.127-0.641,0.254-0.963,0.381c-0.068-0.377-0.137-0.755-0.205-1.132
			c-0.422-2.34-0.846-4.68-1.272-7.02c-0.391-2.15-0.78-4.302-1.17-6.453c-0.011-0.057-0.021-0.115-0.031-0.172
			c0.053-0.02,0.107-0.04,0.16-0.06c3.041-1.101,6.102-2.151,9.186-3.125c1.341-0.474,2.858-1.017,3.653-2.274
			c0.684-1.336-0.112-3.628-1.837-3.459c-0.083,0.021-0.166,0.043-0.248,0.068c-0.129,0.003-0.265,0.023-0.407,0.062
			c-3.516,1.05-7.009,2.183-10.472,3.395c-0.249,0.113-0.578,0.224-0.951,0.339c-0.07-0.394-0.143-0.788-0.214-1.182
			c-0.381-2.091-0.761-4.182-1.137-6.275c-0.396-2.201-0.798-4.401-1.197-6.601c-0.168-0.924-0.337-1.847-0.504-2.77
			c2.293-1.086,4.555-2.234,6.842-3.329c1.59-0.745,3.22-1.408,4.791-2.191c1.754-0.869,3.441-2.291,3.277-4.43
			c0.225-1.443-0.878-2.777-2.351-2.751c-0.864,0.046-1.656,0.457-2.444,0.781c-1.955,0.83-3.86,1.771-5.737,2.764
			c-2.911,1.554-5.828,3.128-8.583,4.948c-0.887,0.621-1.807,1.507-1.648,2.69c0.004,0.037,0.008,0.075,0.012,0.113
			c-0.108,0.58-0.104,1.32-0.077,2.371c0.164,2.383,0.539,4.747,0.911,7.104c0.551,3.482,1.112,6.961,1.859,10.405
			c0.961,5.606,2.12,11.123,3.356,16.683c0.424,1.919,0.877,3.84,1.41,5.732c0.248,0.893,0.5,1.973,1.32,2.47
			c0.311,0.313,0.77,0.475,1.235,0.458c0.624-0.01,1.224-0.129,1.807-0.31c1.21-0.196,2.392-0.751,3.493-1.232
			c2.038-0.928,4.08-1.846,6.112-2.79c2.015-0.934,4.054-1.828,6.076-2.747c1.233-0.688,2.942-1.24,3.364-2.736
			c0.154-0.663-0.032-1.381-0.435-1.924C421.433,401.315,421.184,401.088,420.923,400.966z"/>
	</g>
</g>
</svg>
